<?xml version="1.0" encoding="UTF-8" standalone="no"?>
<!DOCTYPE svg PUBLIC "-//W3C//DTD SVG 1.1//EN"
 "http://www.w3.org/Graphics/SVG/1.1/DTD/svg11.dtd">
<!-- Generated by graphviz version 2.26.3 (20100126.1600)
 -->
<!-- Title: controllers_diagram Pages: 1 -->
<svg width="964pt" height="939pt"
 viewBox="0.00 0.00 964.00 939.00" xmlns="http://www.w3.org/2000/svg" xmlns:xlink="http://www.w3.org/1999/xlink">
<g id="graph1" class="graph" transform="scale(1 1) rotate(0) translate(4 935)">
<title>controllers_diagram</title>
<polygon fill="white" stroke="white" points="-4,5 -4,-935 961,-935 961,5 -4,5"/>
<!-- _diagram_info -->
<g id="node1" class="node"><title>_diagram_info</title>
<text text-anchor="start" x="713" y="-738.3" font-family="Times Roman,serif" font-size="13.00">Controllers diagram</text>
<text text-anchor="start" x="713" y="-721.3" font-family="Times Roman,serif" font-size="13.00">Date: Jan 30 2015 &#45; 19:31</text>
<text text-anchor="start" x="713" y="-704.3" font-family="Times Roman,serif" font-size="13.00">Migration version: 20150130230951</text>
<text text-anchor="start" x="713" y="-687.3" font-family="Times Roman,serif" font-size="13.00">Generated by RailRoady 1.3.0</text>
<text text-anchor="start" x="713" y="-670.3" font-family="Times Roman,serif" font-size="13.00">http://railroady.prestonlee.com</text>
</g>
<!-- EmpleadosController -->
<g id="node2" class="node"><title>EmpleadosController</title>
<polyline fill="none" stroke="black" points="431,-287.5 566,-287.5 "/>
<path fill="none" stroke="black" d="M566,-287.5C572,-287.5 578,-293.5 578,-299.5"/>
<polyline fill="none" stroke="black" points="578,-299.5 578,-521.5 "/>
<path fill="none" stroke="black" d="M578,-521.5C578,-527.5 572,-533.5 566,-533.5"/>
<polyline fill="none" stroke="black" points="566,-533.5 431,-533.5 "/>
<path fill="none" stroke="black" d="M431,-533.5C425,-533.5 419,-527.5 419,-521.5"/>
<polyline fill="none" stroke="black" points="419,-521.5 419,-299.5 "/>
<path fill="none" stroke="black" d="M419,-299.5C419,-293.5 425,-287.5 431,-287.5"/>
<text text-anchor="middle" x="498.5" y="-516.9" font-family="Times Roman,serif" font-size="14.00">EmpleadosController</text>
<polyline fill="none" stroke="black" points="419,-507.5 578,-507.5 "/>
<text text-anchor="start" x="427" y="-490.9" font-family="Times Roman,serif" font-size="14.00">create</text>
<text text-anchor="start" x="427" y="-472.9" font-family="Times Roman,serif" font-size="14.00">destroy</text>
<text text-anchor="start" x="427" y="-454.9" font-family="Times Roman,serif" font-size="14.00">edit</text>
<text text-anchor="start" x="427" y="-436.9" font-family="Times Roman,serif" font-size="14.00">index</text>
<text text-anchor="start" x="427" y="-418.9" font-family="Times Roman,serif" font-size="14.00">new</text>
<text text-anchor="start" x="427" y="-400.9" font-family="Times Roman,serif" font-size="14.00">show</text>
<text text-anchor="start" x="427" y="-382.9" font-family="Times Roman,serif" font-size="14.00">update</text>
<polyline fill="none" stroke="black" points="419,-373.5 578,-373.5 "/>
<polyline fill="none" stroke="black" points="419,-349.5 578,-349.5 "/>
<text text-anchor="start" x="427" y="-332.9" font-family="Times Roman,serif" font-size="14.00">_layout</text>
<text text-anchor="start" x="427" y="-314.9" font-family="Times Roman,serif" font-size="14.00">empleado_params</text>
<text text-anchor="start" x="427" y="-296.9" font-family="Times Roman,serif" font-size="14.00">set_empleado</text>
</g>
<!-- CategoriaController -->
<g id="node3" class="node"><title>CategoriaController</title>
<polyline fill="none" stroke="black" points="35,-683.5 163,-683.5 "/>
<path fill="none" stroke="black" d="M163,-683.5C169,-683.5 175,-689.5 175,-695.5"/>
<polyline fill="none" stroke="black" points="175,-695.5 175,-917.5 "/>
<path fill="none" stroke="black" d="M175,-917.5C175,-923.5 169,-929.5 163,-929.5"/>
<polyline fill="none" stroke="black" points="163,-929.5 35,-929.5 "/>
<path fill="none" stroke="black" d="M35,-929.5C29,-929.5 23,-923.5 23,-917.5"/>
<polyline fill="none" stroke="black" points="23,-917.5 23,-695.5 "/>
<path fill="none" stroke="black" d="M23,-695.5C23,-689.5 29,-683.5 35,-683.5"/>
<text text-anchor="middle" x="99" y="-912.9" font-family="Times Roman,serif" font-size="14.00">CategoriaController</text>
<polyline fill="none" stroke="black" points="23,-903.5 175,-903.5 "/>
<text text-anchor="start" x="31" y="-886.9" font-family="Times Roman,serif" font-size="14.00">create</text>
<text text-anchor="start" x="31" y="-868.9" font-family="Times Roman,serif" font-size="14.00">destroy</text>
<text text-anchor="start" x="31" y="-850.9" font-family="Times Roman,serif" font-size="14.00">edit</text>
<text text-anchor="start" x="31" y="-832.9" font-family="Times Roman,serif" font-size="14.00">index</text>
<text text-anchor="start" x="31" y="-814.9" font-family="Times Roman,serif" font-size="14.00">new</text>
<text text-anchor="start" x="31" y="-796.9" font-family="Times Roman,serif" font-size="14.00">show</text>
<text text-anchor="start" x="31" y="-778.9" font-family="Times Roman,serif" font-size="14.00">update</text>
<polyline fill="none" stroke="black" points="23,-769.5 175,-769.5 "/>
<polyline fill="none" stroke="black" points="23,-745.5 175,-745.5 "/>
<text text-anchor="start" x="31" y="-728.9" font-family="Times Roman,serif" font-size="14.00">_layout</text>
<text text-anchor="start" x="31" y="-710.9" font-family="Times Roman,serif" font-size="14.00">categorium_params</text>
<text text-anchor="start" x="31" y="-692.9" font-family="Times Roman,serif" font-size="14.00">set_categorium</text>
</g>
<!-- RolesController -->
<g id="node4" class="node"><title>RolesController</title>
<polyline fill="none" stroke="black" points="629,-89.5 727,-89.5 "/>
<path fill="none" stroke="black" d="M727,-89.5C733,-89.5 739,-95.5 739,-101.5"/>
<polyline fill="none" stroke="black" points="739,-101.5 739,-323.5 "/>
<path fill="none" stroke="black" d="M739,-323.5C739,-329.5 733,-335.5 727,-335.5"/>
<polyline fill="none" stroke="black" points="727,-335.5 629,-335.5 "/>
<path fill="none" stroke="black" d="M629,-335.5C623,-335.5 617,-329.5 617,-323.5"/>
<polyline fill="none" stroke="black" points="617,-323.5 617,-101.5 "/>
<path fill="none" stroke="black" d="M617,-101.5C617,-95.5 623,-89.5 629,-89.5"/>
<text text-anchor="middle" x="678" y="-318.9" font-family="Times Roman,serif" font-size="14.00">RolesController</text>
<polyline fill="none" stroke="black" points="617,-309.5 739,-309.5 "/>
<text text-anchor="start" x="625" y="-292.9" font-family="Times Roman,serif" font-size="14.00">create</text>
<text text-anchor="start" x="625" y="-274.9" font-family="Times Roman,serif" font-size="14.00">destroy</text>
<text text-anchor="start" x="625" y="-256.9" font-family="Times Roman,serif" font-size="14.00">edit</text>
<text text-anchor="start" x="625" y="-238.9" font-family="Times Roman,serif" font-size="14.00">index</text>
<text text-anchor="start" x="625" y="-220.9" font-family="Times Roman,serif" font-size="14.00">new</text>
<text text-anchor="start" x="625" y="-202.9" font-family="Times Roman,serif" font-size="14.00">show</text>
<text text-anchor="start" x="625" y="-184.9" font-family="Times Roman,serif" font-size="14.00">update</text>
<polyline fill="none" stroke="black" points="617,-175.5 739,-175.5 "/>
<polyline fill="none" stroke="black" points="617,-151.5 739,-151.5 "/>
<text text-anchor="start" x="625" y="-134.9" font-family="Times Roman,serif" font-size="14.00">_layout</text>
<text text-anchor="start" x="625" y="-116.9" font-family="Times Roman,serif" font-size="14.00">role_params</text>
<text text-anchor="start" x="625" y="-98.9" font-family="Times Roman,serif" font-size="14.00">set_role</text>
</g>
<!-- SubcategoriasController -->
<g id="node5" class="node"><title>SubcategoriasController</title>
<polyline fill="none" stroke="black" points="211,-265.5 369,-265.5 "/>
<path fill="none" stroke="black" d="M369,-265.5C375,-265.5 381,-271.5 381,-277.5"/>
<polyline fill="none" stroke="black" points="381,-277.5 381,-499.5 "/>
<path fill="none" stroke="black" d="M381,-499.5C381,-505.5 375,-511.5 369,-511.5"/>
<polyline fill="none" stroke="black" points="369,-511.5 211,-511.5 "/>
<path fill="none" stroke="black" d="M211,-511.5C205,-511.5 199,-505.5 199,-499.5"/>
<polyline fill="none" stroke="black" points="199,-499.5 199,-277.5 "/>
<path fill="none" stroke="black" d="M199,-277.5C199,-271.5 205,-265.5 211,-265.5"/>
<text text-anchor="middle" x="290" y="-494.9" font-family="Times Roman,serif" font-size="14.00">SubcategoriasController</text>
<polyline fill="none" stroke="black" points="199,-485.5 381,-485.5 "/>
<text text-anchor="start" x="207" y="-468.9" font-family="Times Roman,serif" font-size="14.00">create</text>
<text text-anchor="start" x="207" y="-450.9" font-family="Times Roman,serif" font-size="14.00">destroy</text>
<text text-anchor="start" x="207" y="-432.9" font-family="Times Roman,serif" font-size="14.00">edit</text>
<text text-anchor="start" x="207" y="-414.9" font-family="Times Roman,serif" font-size="14.00">index</text>
<text text-anchor="start" x="207" y="-396.9" font-family="Times Roman,serif" font-size="14.00">new</text>
<text text-anchor="start" x="207" y="-378.9" font-family="Times Roman,serif" font-size="14.00">show</text>
<text text-anchor="start" x="207" y="-360.9" font-family="Times Roman,serif" font-size="14.00">update</text>
<polyline fill="none" stroke="black" points="199,-351.5 381,-351.5 "/>
<polyline fill="none" stroke="black" points="199,-327.5 381,-327.5 "/>
<text text-anchor="start" x="207" y="-310.9" font-family="Times Roman,serif" font-size="14.00">_layout</text>
<text text-anchor="start" x="207" y="-292.9" font-family="Times Roman,serif" font-size="14.00">set_subcategoria</text>
<text text-anchor="start" x="207" y="-274.9" font-family="Times Roman,serif" font-size="14.00">subcategoria_params</text>
</g>
<!-- CategoriasController -->
<g id="node6" class="node"><title>CategoriasController</title>
<polyline fill="none" stroke="black" points="233,-551.5 368,-551.5 "/>
<path fill="none" stroke="black" d="M368,-551.5C374,-551.5 380,-557.5 380,-563.5"/>
<polyline fill="none" stroke="black" points="380,-563.5 380,-785.5 "/>
<path fill="none" stroke="black" d="M380,-785.5C380,-791.5 374,-797.5 368,-797.5"/>
<polyline fill="none" stroke="black" points="368,-797.5 233,-797.5 "/>
<path fill="none" stroke="black" d="M233,-797.5C227,-797.5 221,-791.5 221,-785.5"/>
<polyline fill="none" stroke="black" points="221,-785.5 221,-563.5 "/>
<path fill="none" stroke="black" d="M221,-563.5C221,-557.5 227,-551.5 233,-551.5"/>
<text text-anchor="middle" x="300.5" y="-780.9" font-family="Times Roman,serif" font-size="14.00">CategoriasController</text>
<polyline fill="none" stroke="black" points="221,-771.5 380,-771.5 "/>
<text text-anchor="start" x="229" y="-754.9" font-family="Times Roman,serif" font-size="14.00">create</text>
<text text-anchor="start" x="229" y="-736.9" font-family="Times Roman,serif" font-size="14.00">destroy</text>
<text text-anchor="start" x="229" y="-718.9" font-family="Times Roman,serif" font-size="14.00">edit</text>
<text text-anchor="start" x="229" y="-700.9" font-family="Times Roman,serif" font-size="14.00">index</text>
<text text-anchor="start" x="229" y="-682.9" font-family="Times Roman,serif" font-size="14.00">new</text>
<text text-anchor="start" x="229" y="-664.9" font-family="Times Roman,serif" font-size="14.00">show</text>
<text text-anchor="start" x="229" y="-646.9" font-family="Times Roman,serif" font-size="14.00">update</text>
<polyline fill="none" stroke="black" points="221,-637.5 380,-637.5 "/>
<polyline fill="none" stroke="black" points="221,-613.5 380,-613.5 "/>
<text text-anchor="start" x="229" y="-596.9" font-family="Times Roman,serif" font-size="14.00">_layout</text>
<text text-anchor="start" x="229" y="-578.9" font-family="Times Roman,serif" font-size="14.00">categoria_params</text>
<text text-anchor="start" x="229" y="-560.9" font-family="Times Roman,serif" font-size="14.00">set_categoria</text>
</g>
<!-- ApplicationController -->
<g id="node7" class="node"><title>ApplicationController</title>
<polyline fill="none" stroke="black" points="211,-111.5 348,-111.5 "/>
<path fill="none" stroke="black" d="M348,-111.5C354,-111.5 360,-117.5 360,-123.5"/>
<polyline fill="none" stroke="black" points="360,-123.5 360,-199.5 "/>
<path fill="none" stroke="black" d="M360,-199.5C360,-205.5 354,-211.5 348,-211.5"/>
<polyline fill="none" stroke="black" points="348,-211.5 211,-211.5 "/>
<path fill="none" stroke="black" d="M211,-211.5C205,-211.5 199,-205.5 199,-199.5"/>
<polyline fill="none" stroke="black" points="199,-199.5 199,-123.5 "/>
<path fill="none" stroke="black" d="M199,-123.5C199,-117.5 205,-111.5 211,-111.5"/>
<text text-anchor="middle" x="279.5" y="-194.9" font-family="Times Roman,serif" font-size="14.00">ApplicationController</text>
<polyline fill="none" stroke="black" points="199,-185.5 360,-185.5 "/>
<polyline fill="none" stroke="black" points="199,-161.5 360,-161.5 "/>
<polyline fill="none" stroke="black" points="199,-137.5 360,-137.5 "/>
<text text-anchor="start" x="207" y="-120.9" font-family="Times Roman,serif" font-size="14.00">_layout</text>
</g>
<!-- AreasController -->
<g id="node8" class="node"><title>AreasController</title>
<polyline fill="none" stroke="black" points="431,-1.5 532,-1.5 "/>
<path fill="none" stroke="black" d="M532,-1.5C538,-1.5 544,-7.5 544,-13.5"/>
<polyline fill="none" stroke="black" points="544,-13.5 544,-235.5 "/>
<path fill="none" stroke="black" d="M544,-235.5C544,-241.5 538,-247.5 532,-247.5"/>
<polyline fill="none" stroke="black" points="532,-247.5 431,-247.5 "/>
<path fill="none" stroke="black" d="M431,-247.5C425,-247.5 419,-241.5 419,-235.5"/>
<polyline fill="none" stroke="black" points="419,-235.5 419,-13.5 "/>
<path fill="none" stroke="black" d="M419,-13.5C419,-7.5 425,-1.5 431,-1.5"/>
<text text-anchor="middle" x="481.5" y="-230.9" font-family="Times Roman,serif" font-size="14.00">AreasController</text>
<polyline fill="none" stroke="black" points="419,-221.5 544,-221.5 "/>
<text text-anchor="start" x="427" y="-204.9" font-family="Times Roman,serif" font-size="14.00">create</text>
<text text-anchor="start" x="427" y="-186.9" font-family="Times Roman,serif" font-size="14.00">destroy</text>
<text text-anchor="start" x="427" y="-168.9" font-family="Times Roman,serif" font-size="14.00">edit</text>
<text text-anchor="start" x="427" y="-150.9" font-family="Times Roman,serif" font-size="14.00">index</text>
<text text-anchor="start" x="427" y="-132.9" font-family="Times Roman,serif" font-size="14.00">new</text>
<text text-anchor="start" x="427" y="-114.9" font-family="Times Roman,serif" font-size="14.00">show</text>
<text text-anchor="start" x="427" y="-96.9" font-family="Times Roman,serif" font-size="14.00">update</text>
<polyline fill="none" stroke="black" points="419,-87.5 544,-87.5 "/>
<polyline fill="none" stroke="black" points="419,-63.5 544,-63.5 "/>
<text text-anchor="start" x="427" y="-46.9" font-family="Times Roman,serif" font-size="14.00">_layout</text>
<text text-anchor="start" x="427" y="-28.9" font-family="Times Roman,serif" font-size="14.00">area_params</text>
<text text-anchor="start" x="427" y="-10.9" font-family="Times Roman,serif" font-size="14.00">set_area</text>
</g>
<!-- UsuariosController -->
<g id="node9" class="node"><title>UsuariosController</title>
<polyline fill="none" stroke="black" points="13,-397.5 134,-397.5 "/>
<path fill="none" stroke="black" d="M134,-397.5C140,-397.5 146,-403.5 146,-409.5"/>
<polyline fill="none" stroke="black" points="146,-409.5 146,-631.5 "/>
<path fill="none" stroke="black" d="M146,-631.5C146,-637.5 140,-643.5 134,-643.5"/>
<polyline fill="none" stroke="black" points="134,-643.5 13,-643.5 "/>
<path fill="none" stroke="black" d="M13,-643.5C7,-643.5 1,-637.5 1,-631.5"/>
<polyline fill="none" stroke="black" points="1,-631.5 1,-409.5 "/>
<path fill="none" stroke="black" d="M1,-409.5C1,-403.5 7,-397.5 13,-397.5"/>
<text text-anchor="middle" x="73.5" y="-626.9" font-family="Times Roman,serif" font-size="14.00">UsuariosController</text>
<polyline fill="none" stroke="black" points="1,-617.5 146,-617.5 "/>
<text text-anchor="start" x="9" y="-600.9" font-family="Times Roman,serif" font-size="14.00">create</text>
<text text-anchor="start" x="9" y="-582.9" font-family="Times Roman,serif" font-size="14.00">destroy</text>
<text text-anchor="start" x="9" y="-564.9" font-family="Times Roman,serif" font-size="14.00">edit</text>
<text text-anchor="start" x="9" y="-546.9" font-family="Times Roman,serif" font-size="14.00">index</text>
<text text-anchor="start" x="9" y="-528.9" font-family="Times Roman,serif" font-size="14.00">new</text>
<text text-anchor="start" x="9" y="-510.9" font-family="Times Roman,serif" font-size="14.00">show</text>
<text text-anchor="start" x="9" y="-492.9" font-family="Times Roman,serif" font-size="14.00">update</text>
<polyline fill="none" stroke="black" points="1,-483.5 146,-483.5 "/>
<polyline fill="none" stroke="black" points="1,-459.5 146,-459.5 "/>
<text text-anchor="start" x="9" y="-442.9" font-family="Times Roman,serif" font-size="14.00">_layout</text>
<text text-anchor="start" x="9" y="-424.9" font-family="Times Roman,serif" font-size="14.00">set_usuario</text>
<text text-anchor="start" x="9" y="-406.9" font-family="Times Roman,serif" font-size="14.00">usuario_params</text>
</g>
<!-- SubcategoriaController -->
<g id="node10" class="node"><title>SubcategoriaController</title>
<polyline fill="none" stroke="black" points="497,-573.5 649,-573.5 "/>
<path fill="none" stroke="black" d="M649,-573.5C655,-573.5 661,-579.5 661,-585.5"/>
<polyline fill="none" stroke="black" points="661,-585.5 661,-807.5 "/>
<path fill="none" stroke="black" d="M661,-807.5C661,-813.5 655,-819.5 649,-819.5"/>
<polyline fill="none" stroke="black" points="649,-819.5 497,-819.5 "/>
<path fill="none" stroke="black" d="M497,-819.5C491,-819.5 485,-813.5 485,-807.5"/>
<polyline fill="none" stroke="black" points="485,-807.5 485,-585.5 "/>
<path fill="none" stroke="black" d="M485,-585.5C485,-579.5 491,-573.5 497,-573.5"/>
<text text-anchor="middle" x="573" y="-802.9" font-family="Times Roman,serif" font-size="14.00">SubcategoriaController</text>
<polyline fill="none" stroke="black" points="485,-793.5 661,-793.5 "/>
<text text-anchor="start" x="493" y="-776.9" font-family="Times Roman,serif" font-size="14.00">create</text>
<text text-anchor="start" x="493" y="-758.9" font-family="Times Roman,serif" font-size="14.00">destroy</text>
<text text-anchor="start" x="493" y="-740.9" font-family="Times Roman,serif" font-size="14.00">edit</text>
<text text-anchor="start" x="493" y="-722.9" font-family="Times Roman,serif" font-size="14.00">index</text>
<text text-anchor="start" x="493" y="-704.9" font-family="Times Roman,serif" font-size="14.00">new</text>
<text text-anchor="start" x="493" y="-686.9" font-family="Times Roman,serif" font-size="14.00">show</text>
<text text-anchor="start" x="493" y="-668.9" font-family="Times Roman,serif" font-size="14.00">update</text>
<polyline fill="none" stroke="black" points="485,-659.5 661,-659.5 "/>
<polyline fill="none" stroke="black" points="485,-635.5 661,-635.5 "/>
<text text-anchor="start" x="493" y="-618.9" font-family="Times Roman,serif" font-size="14.00">_layout</text>
<text text-anchor="start" x="493" y="-600.9" font-family="Times Roman,serif" font-size="14.00">set_subcategorium</text>
<text text-anchor="start" x="493" y="-582.9" font-family="Times Roman,serif" font-size="14.00">subcategorium_params</text>
</g>
<!-- EmpresasController -->
<g id="node11" class="node"><title>EmpresasController</title>
<polyline fill="none" stroke="black" points="13,-111.5 141,-111.5 "/>
<path fill="none" stroke="black" d="M141,-111.5C147,-111.5 153,-117.5 153,-123.5"/>
<polyline fill="none" stroke="black" points="153,-123.5 153,-345.5 "/>
<path fill="none" stroke="black" d="M153,-345.5C153,-351.5 147,-357.5 141,-357.5"/>
<polyline fill="none" stroke="black" points="141,-357.5 13,-357.5 "/>
<path fill="none" stroke="black" d="M13,-357.5C7,-357.5 1,-351.5 1,-345.5"/>
<polyline fill="none" stroke="black" points="1,-345.5 1,-123.5 "/>
<path fill="none" stroke="black" d="M1,-123.5C1,-117.5 7,-111.5 13,-111.5"/>
<text text-anchor="middle" x="77" y="-340.9" font-family="Times Roman,serif" font-size="14.00">EmpresasController</text>
<polyline fill="none" stroke="black" points="1,-331.5 153,-331.5 "/>
<text text-anchor="start" x="9" y="-314.9" font-family="Times Roman,serif" font-size="14.00">create</text>
<text text-anchor="start" x="9" y="-296.9" font-family="Times Roman,serif" font-size="14.00">destroy</text>
<text text-anchor="start" x="9" y="-278.9" font-family="Times Roman,serif" font-size="14.00">edit</text>
<text text-anchor="start" x="9" y="-260.9" font-family="Times Roman,serif" font-size="14.00">index</text>
<text text-anchor="start" x="9" y="-242.9" font-family="Times Roman,serif" font-size="14.00">new</text>
<text text-anchor="start" x="9" y="-224.9" font-family="Times Roman,serif" font-size="14.00">show</text>
<text text-anchor="start" x="9" y="-206.9" font-family="Times Roman,serif" font-size="14.00">update</text>
<polyline fill="none" stroke="black" points="1,-197.5 153,-197.5 "/>
<polyline fill="none" stroke="black" points="1,-173.5 153,-173.5 "/>
<text text-anchor="start" x="9" y="-156.9" font-family="Times Roman,serif" font-size="14.00">_layout</text>
<text text-anchor="start" x="9" y="-138.9" font-family="Times Roman,serif" font-size="14.00">empresa_params</text>
<text text-anchor="start" x="9" y="-120.9" font-family="Times Roman,serif" font-size="14.00">set_empresa</text>
</g>
<!-- TicketsController -->
<g id="node12" class="node"><title>TicketsController</title>
<polyline fill="none" stroke="black" points="717,-375.5 826,-375.5 "/>
<path fill="none" stroke="black" d="M826,-375.5C832,-375.5 838,-381.5 838,-387.5"/>
<polyline fill="none" stroke="black" points="838,-387.5 838,-609.5 "/>
<path fill="none" stroke="black" d="M838,-609.5C838,-615.5 832,-621.5 826,-621.5"/>
<polyline fill="none" stroke="black" points="826,-621.5 717,-621.5 "/>
<path fill="none" stroke="black" d="M717,-621.5C711,-621.5 705,-615.5 705,-609.5"/>
<polyline fill="none" stroke="black" points="705,-609.5 705,-387.5 "/>
<path fill="none" stroke="black" d="M705,-387.5C705,-381.5 711,-375.5 717,-375.5"/>
<text text-anchor="middle" x="771.5" y="-604.9" font-family="Times Roman,serif" font-size="14.00">TicketsController</text>
<polyline fill="none" stroke="black" points="705,-595.5 838,-595.5 "/>
<text text-anchor="start" x="713" y="-578.9" font-family="Times Roman,serif" font-size="14.00">create</text>
<text text-anchor="start" x="713" y="-560.9" font-family="Times Roman,serif" font-size="14.00">destroy</text>
<text text-anchor="start" x="713" y="-542.9" font-family="Times Roman,serif" font-size="14.00">edit</text>
<text text-anchor="start" x="713" y="-524.9" font-family="Times Roman,serif" font-size="14.00">index</text>
<text text-anchor="start" x="713" y="-506.9" font-family="Times Roman,serif" font-size="14.00">new</text>
<text text-anchor="start" x="713" y="-488.9" font-family="Times Roman,serif" font-size="14.00">show</text>
<text text-anchor="start" x="713" y="-470.9" font-family="Times Roman,serif" font-size="14.00">update</text>
<polyline fill="none" stroke="black" points="705,-461.5 838,-461.5 "/>
<polyline fill="none" stroke="black" points="705,-437.5 838,-437.5 "/>
<text text-anchor="start" x="713" y="-420.9" font-family="Times Roman,serif" font-size="14.00">_layout</text>
<text text-anchor="start" x="713" y="-402.9" font-family="Times Roman,serif" font-size="14.00">set_ticket</text>
<text text-anchor="start" x="713" y="-384.9" font-family="Times Roman,serif" font-size="14.00">ticket_params</text>
</g>
</g>
</svg>
