<?xml version="1.0" encoding="UTF-8" standalone="no"?>
<!DOCTYPE svg PUBLIC "-//W3C//DTD SVG 1.1//EN"
 "http://www.w3.org/Graphics/SVG/1.1/DTD/svg11.dtd">
<!-- Generated by graphviz version 2.26.3 (20100126.1600)
 -->
<!-- Title: models_diagram Pages: 1 -->
<svg width="483pt" height="472pt"
 viewBox="0.00 0.00 483.00 472.00" xmlns="http://www.w3.org/2000/svg" xmlns:xlink="http://www.w3.org/1999/xlink">
<g id="graph1" class="graph" transform="scale(1 1) rotate(0) translate(4 468)">
<title>models_diagram</title>
<polygon fill="white" stroke="white" points="-4,5 -4,-468 480,-468 480,5 -4,5"/>
<!-- _diagram_info -->
<g id="node1" class="node"><title>_diagram_info</title>
<text text-anchor="start" x="8" y="-447.8" font-family="Times Roman,serif" font-size="13.00">Models diagram</text>
<text text-anchor="start" x="8" y="-430.8" font-family="Times Roman,serif" font-size="13.00">Date: Jan 30 2015 &#45; 19:31</text>
<text text-anchor="start" x="8" y="-413.8" font-family="Times Roman,serif" font-size="13.00">Migration version: 20150130230951</text>
<text text-anchor="start" x="8" y="-396.8" font-family="Times Roman,serif" font-size="13.00">Generated by RailRoady 1.3.0</text>
<text text-anchor="start" x="8" y="-379.8" font-family="Times Roman,serif" font-size="13.00">http://railroady.prestonlee.com</text>
</g>
<!-- Usuario -->
<g id="node2" class="node"><title>Usuario</title>
<ellipse fill="none" stroke="black" cx="151" cy="-167" rx="48.7904" ry="18.3848"/>
<text text-anchor="middle" x="151" y="-163.4" font-family="Times Roman,serif" font-size="14.00">Usuario</text>
</g>
<!-- Ticket -->
<g id="node9" class="node"><title>Ticket</title>
<ellipse fill="none" stroke="black" cx="407" cy="-93" rx="39.8075" ry="18.3848"/>
<text text-anchor="middle" x="407" y="-89.4" font-family="Times Roman,serif" font-size="14.00">Ticket</text>
</g>
<!-- Usuario&#45;&gt;Ticket -->
<g id="edge2" class="edge"><title>Usuario&#45;&gt;Ticket</title>
<path fill="none" stroke="#e40212" d="M198.021,-153.408C245.137,-139.789 317.092,-118.989 363.079,-105.696"/>
<ellipse fill="none" stroke="#e40212" cx="194.002" cy="-154.57" rx="4.00001" ry="4.00001"/>
<polygon fill="#e40212" stroke="#e40212" points="363.156,-105.674 374.013,-107.22 367.96,-104.285 372.763,-102.897 372.763,-102.897 372.763,-102.897 367.96,-104.285 371.513,-98.5736 363.156,-105.674 363.156,-105.674"/>
</g>
<!-- Area -->
<g id="node3" class="node"><title>Area</title>
<ellipse fill="none" stroke="black" cx="353" cy="-315" rx="34.1461" ry="18.3848"/>
<text text-anchor="middle" x="353" y="-311.4" font-family="Times Roman,serif" font-size="14.00">Area</text>
</g>
<!-- Empleado -->
<g id="node5" class="node"><title>Empleado</title>
<ellipse fill="none" stroke="black" cx="225" cy="-241" rx="58.1882" ry="18.3848"/>
<text text-anchor="middle" x="225" y="-237.4" font-family="Times Roman,serif" font-size="14.00">Empleado</text>
</g>
<!-- Area&#45;&gt;Empleado -->
<g id="edge6" class="edge"><title>Area&#45;&gt;Empleado</title>
<path fill="none" stroke="#f57624" d="M322.394,-297.306C304.262,-286.823 281.163,-273.469 262.011,-262.397"/>
<ellipse fill="none" stroke="#f57624" cx="326.06" cy="-299.425" rx="4.00002" ry="4.00002"/>
<polygon fill="#f57624" stroke="#f57624" points="261.901,-262.333 255.496,-253.433 257.572,-259.831 253.244,-257.328 253.244,-257.328 253.244,-257.328 257.572,-259.831 250.991,-261.224 261.901,-262.333 261.901,-262.333"/>
</g>
<!-- Categoria -->
<g id="node6" class="node"><title>Categoria</title>
<ellipse fill="none" stroke="black" cx="359" cy="-241" rx="58.1882" ry="18.3848"/>
<text text-anchor="middle" x="359" y="-237.4" font-family="Times Roman,serif" font-size="14.00">Categoria</text>
</g>
<!-- Area&#45;&gt;Categoria -->
<g id="edge4" class="edge"><title>Area&#45;&gt;Categoria</title>
<path fill="none" stroke="#eacc2d" d="M355.164,-288.309C355.645,-282.377 356.157,-276.061 356.645,-270.04"/>
<ellipse fill="none" stroke="#eacc2d" cx="354.837" cy="-292.34" rx="4" ry="4"/>
<polygon fill="#eacc2d" stroke="#eacc2d" points="356.678,-269.635 361.972,-260.031 357.082,-264.651 357.486,-259.667 357.486,-259.667 357.486,-259.667 357.082,-264.651 353.001,-259.304 356.678,-269.635 356.678,-269.635"/>
</g>
<!-- Area&#45;&gt;Ticket -->
<g id="edge8" class="edge"><title>Area&#45;&gt;Ticket</title>
<path fill="none" stroke="#17ee5a" d="M386.586,-298.83C401.555,-289.693 417.663,-276.719 426,-260 448.399,-215.079 432.117,-155.124 419.024,-120.622"/>
<ellipse fill="none" stroke="#17ee5a" cx="382.83" cy="-301.003" rx="4.00002" ry="4.00002"/>
<polygon fill="#17ee5a" stroke="#17ee5a" points="418.969,-120.482 419.463,-109.527 417.124,-115.835 415.28,-111.187 415.28,-111.187 415.28,-111.187 417.124,-115.835 411.097,-112.847 418.969,-120.482 418.969,-120.482"/>
</g>
<!-- Role -->
<g id="node4" class="node"><title>Role</title>
<ellipse fill="none" stroke="black" cx="225" cy="-315" rx="32.0265" ry="18.3848"/>
<text text-anchor="middle" x="225" y="-311.4" font-family="Times Roman,serif" font-size="14.00">Role</text>
</g>
<!-- Role&#45;&gt;Empleado -->
<g id="edge10" class="edge"><title>Role&#45;&gt;Empleado</title>
<path fill="none" stroke="#138301" d="M225,-288.309C225,-282.377 225,-276.061 225,-270.04"/>
<ellipse fill="none" stroke="#138301" cx="225" cy="-292.327" rx="4" ry="4"/>
<polygon fill="#138301" stroke="#138301" points="225,-269.667 229.5,-259.667 225,-264.667 225,-259.667 225,-259.667 225,-259.667 225,-264.667 220.5,-259.667 225,-269.667 225,-269.667"/>
</g>
<!-- Subcategoria -->
<g id="node7" class="node"><title>Subcategoria</title>
<ellipse fill="none" stroke="black" cx="304" cy="-167" rx="75.1594" ry="18.3848"/>
<text text-anchor="middle" x="304" y="-163.4" font-family="Times Roman,serif" font-size="14.00">Subcategoria</text>
</g>
<!-- Categoria&#45;&gt;Subcategoria -->
<g id="edge12" class="edge"><title>Categoria&#45;&gt;Subcategoria</title>
<path fill="none" stroke="#4cee19" d="M340.425,-216.008C335.059,-208.789 329.185,-200.885 323.751,-193.573"/>
<ellipse fill="none" stroke="#4cee19" cx="343.018" cy="-219.497" rx="4.00002" ry="4.00002"/>
<polygon fill="#4cee19" stroke="#4cee19" points="323.595,-193.364 321.241,-182.654 320.612,-189.351 317.63,-185.338 317.63,-185.338 317.63,-185.338 320.612,-189.351 314.018,-188.023 323.595,-193.364 323.595,-193.364"/>
</g>
<!-- Categoria&#45;&gt;Ticket -->
<g id="edge14" class="edge"><title>Categoria&#45;&gt;Ticket</title>
<path fill="none" stroke="#4ad476" d="M374.22,-215.785C379.206,-206.658 384.387,-196.106 388,-186 395.502,-165.018 400.38,-140.256 403.312,-121.56"/>
<ellipse fill="none" stroke="#4ad476" cx="372.257" cy="-219.277" rx="4.00002" ry="4.00002"/>
<polygon fill="#4ad476" stroke="#4ad476" points="403.323,-121.488 409.235,-112.252 404.053,-116.541 404.783,-111.595 404.783,-111.595 404.783,-111.595 404.053,-116.541 400.331,-110.938 403.323,-121.488 403.323,-121.488"/>
</g>
<!-- Subcategoria&#45;&gt;Ticket -->
<g id="edge16" class="edge"><title>Subcategoria&#45;&gt;Ticket</title>
<path fill="none" stroke="#a229e7" d="M335.121,-144.641C348.388,-135.11 363.805,-124.033 376.952,-114.588"/>
<ellipse fill="none" stroke="#a229e7" cx="331.658" cy="-147.129" rx="4.00002" ry="4.00002"/>
<polygon fill="#a229e7" stroke="#a229e7" points="377.096,-114.484 387.843,-112.304 381.157,-111.567 385.217,-108.65 385.217,-108.65 385.217,-108.65 381.157,-111.567 382.592,-104.995 377.096,-114.484 377.096,-114.484"/>
</g>
<!-- Empresa -->
<g id="node8" class="node"><title>Empresa</title>
<ellipse fill="none" stroke="black" cx="321" cy="-417" rx="53.2379" ry="18.3848"/>
<text text-anchor="middle" x="321" y="-413.4" font-family="Times Roman,serif" font-size="14.00">Empresa</text>
</g>
<!-- Empresa&#45;&gt;Usuario -->
<g id="edge20" class="edge"><title>Empresa&#45;&gt;Usuario</title>
<path fill="none" stroke="#e780de" d="M294.169,-394.791C283.553,-386.509 271.029,-377.344 259,-370 227.441,-350.734 208.673,-361.538 184,-334 149.717,-295.736 146.777,-232.431 148.422,-195.739"/>
<ellipse fill="none" stroke="#e780de" cx="297.374" cy="-397.327" rx="4.00002" ry="4.00002"/>
<polygon fill="#e780de" stroke="#e780de" points="148.425,-195.683 153.509,-185.967 148.721,-190.692 149.017,-185.7 149.017,-185.7 149.017,-185.7 148.721,-190.692 144.525,-185.434 148.425,-195.683 148.425,-195.683"/>
</g>
<!-- Empresa&#45;&gt;Area -->
<g id="edge18" class="edge"><title>Empresa&#45;&gt;Area</title>
<path fill="none" stroke="#82a9c0" d="M329.33,-390.448C333.914,-375.835 339.599,-357.715 344.248,-342.895"/>
<ellipse fill="none" stroke="#82a9c0" cx="328.067" cy="-394.475" rx="4.00001" ry="4.00001"/>
<polygon fill="#82a9c0" stroke="#82a9c0" points="344.282,-342.788 351.569,-334.594 345.779,-338.017 347.276,-333.247 347.276,-333.247 347.276,-333.247 345.779,-338.017 342.982,-331.9 344.282,-342.788 344.282,-342.788"/>
</g>
<!-- Empresa&#45;&gt;Empleado -->
<g id="edge22" class="edge"><title>Empresa&#45;&gt;Empleado</title>
<path fill="none" stroke="#f3c4a6" d="M310.955,-390.707C300.94,-365.638 284.428,-327.193 266,-296 260.216,-286.209 253.043,-276.07 246.321,-267.205"/>
<ellipse fill="none" stroke="#f3c4a6" cx="312.503" cy="-394.629" rx="4.00001" ry="4.00001"/>
<polygon fill="#f3c4a6" stroke="#f3c4a6" points="246.203,-267.052 243.632,-256.392 243.139,-263.101 240.076,-259.149 240.076,-259.149 240.076,-259.149 243.139,-263.101 236.519,-261.906 246.203,-267.052 246.203,-267.052"/>
</g>
<!-- Empresa&#45;&gt;Ticket -->
<g id="edge24" class="edge"><title>Empresa&#45;&gt;Ticket</title>
<path fill="none" stroke="#78ba83" d="M348.377,-394.392C379.469,-366.613 428.08,-316.2 445,-260 459.35,-212.336 459.82,-195.521 445,-148 441.701,-137.421 435.576,-127.082 429.193,-118.275"/>
<ellipse fill="none" stroke="#78ba83" cx="345.032" cy="-397.33" rx="4.00002" ry="4.00002"/>
<polygon fill="#78ba83" stroke="#78ba83" points="429.184,-118.264 426.641,-107.597 426.13,-114.304 423.077,-110.344 423.077,-110.344 423.077,-110.344 426.13,-114.304 419.514,-113.092 429.184,-118.264 429.184,-118.264"/>
</g>
<!-- Comentario -->
<g id="node23" class="node"><title>Comentario</title>
<ellipse fill="none" stroke="black" cx="407" cy="-19" rx="68.0887" ry="18.3848"/>
<text text-anchor="middle" x="407" y="-15.4" font-family="Times Roman,serif" font-size="14.00">Comentario</text>
</g>
<!-- Ticket&#45;&gt;Comentario -->
<g id="edge26" class="edge"><title>Ticket&#45;&gt;Comentario</title>
<path fill="none" stroke="#113b7a" d="M407,-66.309C407,-60.3769 407,-54.0606 407,-48.0396"/>
<ellipse fill="none" stroke="#113b7a" cx="407" cy="-70.3267" rx="4" ry="4"/>
<polygon fill="#113b7a" stroke="#113b7a" points="407,-47.6674 411.5,-37.6673 407,-42.6674 407,-37.6674 407,-37.6674 407,-37.6674 407,-42.6674 402.5,-37.6674 407,-47.6674 407,-47.6674"/>
</g>
</g>
</svg>
