<?xml version="1.0" encoding="UTF-8" standalone="no"?>
<!DOCTYPE svg PUBLIC "-//W3C//DTD SVG 1.1//EN"
 "http://www.w3.org/Graphics/SVG/1.1/DTD/svg11.dtd">
<!-- Generated by graphviz version 2.26.3 (20100126.1600)
 -->
<!-- Title: models_diagram Pages: 1 -->
<svg width="512pt" height="472pt"
 viewBox="0.00 0.00 512.00 472.00" xmlns="http://www.w3.org/2000/svg" xmlns:xlink="http://www.w3.org/1999/xlink">
<g id="graph1" class="graph" transform="scale(1 1) rotate(0) translate(4 468)">
<title>models_diagram</title>
<polygon fill="white" stroke="white" points="-4,5 -4,-468 509,-468 509,5 -4,5"/>
<!-- _diagram_info -->
<g id="node1" class="node"><title>_diagram_info</title>
<text text-anchor="start" x="8" y="-447.8" font-family="Times Roman,serif" font-size="13.00">Models diagram</text>
<text text-anchor="start" x="8" y="-430.8" font-family="Times Roman,serif" font-size="13.00">Date: Jan 30 2015 &#45; 19:03</text>
<text text-anchor="start" x="8" y="-413.8" font-family="Times Roman,serif" font-size="13.00">Migration version: 20150130230951</text>
<text text-anchor="start" x="8" y="-396.8" font-family="Times Roman,serif" font-size="13.00">Generated by RailRoady 1.3.0</text>
<text text-anchor="start" x="8" y="-379.8" font-family="Times Roman,serif" font-size="13.00">http://railroady.prestonlee.com</text>
</g>
<!-- Usuario -->
<g id="node2" class="node"><title>Usuario</title>
<ellipse fill="none" stroke="black" cx="95" cy="-241" rx="48.7904" ry="18.3848"/>
<text text-anchor="middle" x="95" y="-237.4" font-family="Times Roman,serif" font-size="14.00">Usuario</text>
</g>
<!-- Ticket -->
<g id="node9" class="node"><title>Ticket</title>
<ellipse fill="none" stroke="black" cx="284" cy="-93" rx="39.8075" ry="18.3848"/>
<text text-anchor="middle" x="284" y="-89.4" font-family="Times Roman,serif" font-size="14.00">Ticket</text>
</g>
<!-- Usuario&#45;&gt;Ticket -->
<g id="edge2" class="edge"><title>Usuario&#45;&gt;Ticket</title>
<path fill="none" stroke="#a27a3e" d="M87.8464,-214.574C84.0346,-194.303 82.6821,-166.713 97,-148 113.93,-125.874 186.442,-109.457 236.033,-100.559"/>
<ellipse fill="none" stroke="#a27a3e" cx="88.6968" cy="-218.58" rx="4.00001" ry="4.00001"/>
<polygon fill="#a27a3e" stroke="#a27a3e" points="236.08,-100.551 246.706,-103.26 241.005,-99.6891 245.93,-98.8275 245.93,-98.8275 245.93,-98.8275 241.005,-99.6891 245.155,-94.3948 236.08,-100.551 236.08,-100.551"/>
</g>
<!-- Area -->
<g id="node3" class="node"><title>Area</title>
<ellipse fill="none" stroke="black" cx="298" cy="-315" rx="34.1461" ry="18.3848"/>
<text text-anchor="middle" x="298" y="-311.4" font-family="Times Roman,serif" font-size="14.00">Area</text>
</g>
<!-- Categoria -->
<g id="node6" class="node"><title>Categoria</title>
<ellipse fill="none" stroke="black" cx="236" cy="-241" rx="58.1882" ry="18.3848"/>
<text text-anchor="middle" x="236" y="-237.4" font-family="Times Roman,serif" font-size="14.00">Categoria</text>
</g>
<!-- Area&#45;&gt;Categoria -->
<g id="edge4" class="edge"><title>Area&#45;&gt;Categoria</title>
<path fill="none" stroke="#63379e" d="M278.359,-291.557C271.764,-283.686 264.374,-274.865 257.635,-266.822"/>
<ellipse fill="none" stroke="#63379e" cx="281.051" cy="-294.771" rx="4.00002" ry="4.00002"/>
<polygon fill="#63379e" stroke="#63379e" points="257.589,-266.768 254.616,-256.212 254.378,-262.935 251.167,-259.102 251.167,-259.102 251.167,-259.102 254.378,-262.935 247.718,-261.992 257.589,-266.768 257.589,-266.768"/>
</g>
<!-- Area&#45;&gt;Ticket -->
<g id="edge6" class="edge"><title>Area&#45;&gt;Ticket</title>
<path fill="none" stroke="#21e5d2" d="M300.923,-288.245C301.771,-279.279 302.582,-269.218 303,-260 303.765,-243.128 304.234,-238.844 303,-222 300.456,-187.275 294.111,-147.71 289.45,-121.656"/>
<ellipse fill="none" stroke="#21e5d2" cx="300.504" cy="-292.464" rx="4" ry="4"/>
<polygon fill="#21e5d2" stroke="#21e5d2" points="289.429,-121.542 292.06,-110.897 288.531,-116.624 287.634,-111.705 287.634,-111.705 287.634,-111.705 288.531,-116.624 283.207,-112.513 289.429,-121.542 289.429,-121.542"/>
</g>
<!-- Role -->
<g id="node4" class="node"><title>Role</title>
<ellipse fill="none" stroke="black" cx="446" cy="-417" rx="32.0265" ry="18.3848"/>
<text text-anchor="middle" x="446" y="-413.4" font-family="Times Roman,serif" font-size="14.00">Role</text>
</g>
<!-- Empleado -->
<g id="node5" class="node"><title>Empleado</title>
<ellipse fill="none" stroke="black" cx="446" cy="-315" rx="58.1882" ry="18.3848"/>
<text text-anchor="middle" x="446" y="-311.4" font-family="Times Roman,serif" font-size="14.00">Empleado</text>
</g>
<!-- Role&#45;&gt;Empleado -->
<g id="edge8" class="edge"><title>Role&#45;&gt;Empleado</title>
<path fill="none" stroke="#65331f" d="M446,-390.015C446,-375.835 446,-358.445 446,-343.98"/>
<ellipse fill="none" stroke="#65331f" cx="446" cy="-394.292" rx="4" ry="4"/>
<polygon fill="#65331f" stroke="#65331f" points="446,-343.59 450.5,-333.59 446,-338.59 446,-333.59 446,-333.59 446,-333.59 446,-338.59 441.5,-333.59 446,-343.59 446,-343.59"/>
</g>
<!-- Subcategoria -->
<g id="node7" class="node"><title>Subcategoria</title>
<ellipse fill="none" stroke="black" cx="181" cy="-167" rx="75.1594" ry="18.3848"/>
<text text-anchor="middle" x="181" y="-163.4" font-family="Times Roman,serif" font-size="14.00">Subcategoria</text>
</g>
<!-- Categoria&#45;&gt;Subcategoria -->
<g id="edge10" class="edge"><title>Categoria&#45;&gt;Subcategoria</title>
<path fill="none" stroke="#53b6bf" d="M217.425,-216.008C212.059,-208.789 206.185,-200.885 200.751,-193.573"/>
<ellipse fill="none" stroke="#53b6bf" cx="220.018" cy="-219.497" rx="4.00002" ry="4.00002"/>
<polygon fill="#53b6bf" stroke="#53b6bf" points="200.595,-193.364 198.241,-182.654 197.612,-189.351 194.63,-185.338 194.63,-185.338 194.63,-185.338 197.612,-189.351 191.018,-188.023 200.595,-193.364 200.595,-193.364"/>
</g>
<!-- Categoria&#45;&gt;Ticket -->
<g id="edge12" class="edge"><title>Categoria&#45;&gt;Ticket</title>
<path fill="none" stroke="#500d76" d="M251.22,-215.785C256.206,-206.658 261.387,-196.106 265,-186 272.502,-165.018 277.38,-140.256 280.312,-121.56"/>
<ellipse fill="none" stroke="#500d76" cx="249.257" cy="-219.277" rx="4.00002" ry="4.00002"/>
<polygon fill="#500d76" stroke="#500d76" points="280.323,-121.488 286.235,-112.252 281.053,-116.541 281.783,-111.595 281.783,-111.595 281.783,-111.595 281.053,-116.541 277.331,-110.938 280.323,-121.488 280.323,-121.488"/>
</g>
<!-- Subcategoria&#45;&gt;Ticket -->
<g id="edge14" class="edge"><title>Subcategoria&#45;&gt;Ticket</title>
<path fill="none" stroke="#554830" d="M212.121,-144.641C225.388,-135.11 240.805,-124.033 253.952,-114.588"/>
<ellipse fill="none" stroke="#554830" cx="208.658" cy="-147.129" rx="4.00002" ry="4.00002"/>
<polygon fill="#554830" stroke="#554830" points="254.096,-114.484 264.843,-112.304 258.157,-111.567 262.217,-108.65 262.217,-108.65 262.217,-108.65 258.157,-111.567 259.592,-104.995 254.096,-114.484 254.096,-114.484"/>
</g>
<!-- Empresa -->
<g id="node8" class="node"><title>Empresa</title>
<ellipse fill="none" stroke="black" cx="321" cy="-417" rx="53.2379" ry="18.3848"/>
<text text-anchor="middle" x="321" y="-413.4" font-family="Times Roman,serif" font-size="14.00">Empresa</text>
</g>
<!-- Empresa&#45;&gt;Usuario -->
<g id="edge18" class="edge"><title>Empresa&#45;&gt;Usuario</title>
<path fill="none" stroke="#9499a5" d="M292.476,-394.786C249.382,-361.227 168.091,-297.92 124.455,-263.938"/>
<ellipse fill="none" stroke="#9499a5" cx="295.763" cy="-397.346" rx="4.00002" ry="4.00002"/>
<polygon fill="#9499a5" stroke="#9499a5" points="124.397,-263.894 119.272,-254.199 120.452,-260.821 116.508,-257.749 116.508,-257.749 116.508,-257.749 120.452,-260.821 113.743,-261.3 124.397,-263.894 124.397,-263.894"/>
</g>
<!-- Empresa&#45;&gt;Area -->
<g id="edge16" class="edge"><title>Empresa&#45;&gt;Area</title>
<path fill="none" stroke="#e17fa1" d="M314.915,-390.015C311.686,-375.696 307.719,-358.103 304.439,-343.555"/>
<ellipse fill="none" stroke="#e17fa1" cx="315.902" cy="-394.39" rx="4.00001" ry="4.00001"/>
<polygon fill="#e17fa1" stroke="#e17fa1" points="304.392,-343.345 306.582,-332.6 303.292,-338.467 302.192,-333.59 302.192,-333.59 302.192,-333.59 303.292,-338.467 297.802,-334.58 304.392,-343.345 304.392,-343.345"/>
</g>
<!-- Empresa&#45;&gt;Empleado -->
<g id="edge20" class="edge"><title>Empresa&#45;&gt;Empleado</title>
<path fill="none" stroke="#140b54" d="M348.121,-394.869C368.363,-378.352 395.987,-355.81 416.728,-338.886"/>
<ellipse fill="none" stroke="#140b54" cx="345.021" cy="-397.399" rx="4.00002" ry="4.00002"/>
<polygon fill="#140b54" stroke="#140b54" points="416.843,-338.792 427.436,-335.957 420.717,-335.631 424.591,-332.47 424.591,-332.47 424.591,-332.47 420.717,-335.631 421.746,-328.984 416.843,-338.792 416.843,-338.792"/>
</g>
<!-- Empresa&#45;&gt;Ticket -->
<g id="edge22" class="edge"><title>Empresa&#45;&gt;Ticket</title>
<path fill="none" stroke="#4dda2c" d="M329.084,-390.486C333.582,-374.333 338.722,-353.177 341,-334 350.877,-250.85 337.989,-227.266 311,-148 307.802,-138.609 303.351,-128.76 298.984,-120.034"/>
<ellipse fill="none" stroke="#4dda2c" cx="327.909" cy="-394.594" rx="4.00001" ry="4.00001"/>
<polygon fill="#4dda2c" stroke="#4dda2c" points="298.945,-119.958 298.336,-109.009 296.643,-115.519 294.341,-111.081 294.341,-111.081 294.341,-111.081 296.643,-115.519 290.346,-113.152 298.945,-119.958 298.945,-119.958"/>
</g>
<!-- Comentario -->
<g id="node22" class="node"><title>Comentario</title>
<ellipse fill="none" stroke="black" cx="284" cy="-19" rx="68.0887" ry="18.3848"/>
<text text-anchor="middle" x="284" y="-15.4" font-family="Times Roman,serif" font-size="14.00">Comentario</text>
</g>
<!-- Ticket&#45;&gt;Comentario -->
<g id="edge24" class="edge"><title>Ticket&#45;&gt;Comentario</title>
<path fill="none" stroke="#2641e8" d="M284,-66.309C284,-60.3769 284,-54.0606 284,-48.0396"/>
<ellipse fill="none" stroke="#2641e8" cx="284" cy="-70.3267" rx="4" ry="4"/>
<polygon fill="#2641e8" stroke="#2641e8" points="284,-47.6674 288.5,-37.6673 284,-42.6674 284,-37.6674 284,-37.6674 284,-37.6674 284,-42.6674 279.5,-37.6674 284,-47.6674 284,-47.6674"/>
</g>
</g>
</svg>
