<?xml version="1.0" encoding="UTF-8" standalone="no"?>
<!DOCTYPE svg PUBLIC "-//W3C//DTD SVG 1.1//EN"
 "http://www.w3.org/Graphics/SVG/1.1/DTD/svg11.dtd">
<!-- Generated by graphviz version 2.26.3 (20100126.1600)
 -->
<!-- Title: models_diagram Pages: 1 -->
<svg width="557pt" height="1054pt"
 viewBox="0.00 0.00 556.69 1054.00" xmlns="http://www.w3.org/2000/svg" xmlns:xlink="http://www.w3.org/1999/xlink">
<g id="graph1" class="graph" transform="scale(1 1) rotate(0) translate(4 1050)">
<title>models_diagram</title>
<polygon fill="white" stroke="white" points="-4,5 -4,-1050 553.693,-1050 553.693,5 -4,5"/>
<!-- _diagram_info -->
<g id="node1" class="node"><title>_diagram_info</title>
<text text-anchor="start" x="8" y="-1013.8" font-family="Times Roman,serif" font-size="13.00">Models diagram</text>
<text text-anchor="start" x="8" y="-996.8" font-family="Times Roman,serif" font-size="13.00">Date: Jan 30 2015 &#45; 19:31</text>
<text text-anchor="start" x="8" y="-979.8" font-family="Times Roman,serif" font-size="13.00">Migration version: 20150130230951</text>
<text text-anchor="start" x="8" y="-962.8" font-family="Times Roman,serif" font-size="13.00">Generated by RailRoady 1.3.0</text>
<text text-anchor="start" x="8" y="-945.8" font-family="Times Roman,serif" font-size="13.00">http://railroady.prestonlee.com</text>
</g>
<!-- Usuario -->
<g id="node2" class="node"><title>Usuario</title>
<polyline fill="none" stroke="black" points="40.5,-345 181.5,-345 "/>
<path fill="none" stroke="black" d="M181.5,-345C187.5,-345 193.5,-351 193.5,-357"/>
<polyline fill="none" stroke="black" points="193.5,-357 193.5,-493 "/>
<path fill="none" stroke="black" d="M193.5,-493C193.5,-499 187.5,-505 181.5,-505"/>
<polyline fill="none" stroke="black" points="181.5,-505 40.5,-505 "/>
<path fill="none" stroke="black" d="M40.5,-505C34.5,-505 28.5,-499 28.5,-493"/>
<polyline fill="none" stroke="black" points="28.5,-493 28.5,-357 "/>
<path fill="none" stroke="black" d="M28.5,-357C28.5,-351 34.5,-345 40.5,-345"/>
<text text-anchor="middle" x="111" y="-488.4" font-family="Times Roman,serif" font-size="14.00">Usuario</text>
<polyline fill="none" stroke="black" points="28.5,-479 193.5,-479 "/>
<text text-anchor="start" x="36.5" y="-462.4" font-family="Times Roman,serif" font-size="14.00">id :integer</text>
<text text-anchor="start" x="36.5" y="-444.4" font-family="Times Roman,serif" font-size="14.00">nombres :string</text>
<text text-anchor="start" x="36.5" y="-426.4" font-family="Times Roman,serif" font-size="14.00">apellidos :string</text>
<text text-anchor="start" x="36.5" y="-408.4" font-family="Times Roman,serif" font-size="14.00">codigo :string</text>
<text text-anchor="start" x="36.5" y="-390.4" font-family="Times Roman,serif" font-size="14.00">empresa_id :integer</text>
<text text-anchor="start" x="36.5" y="-372.4" font-family="Times Roman,serif" font-size="14.00">created_at :datetime</text>
<text text-anchor="start" x="36.5" y="-354.4" font-family="Times Roman,serif" font-size="14.00">updated_at :datetime</text>
</g>
<!-- Ticket -->
<g id="node9" class="node"><title>Ticket</title>
<polyline fill="none" stroke="black" points="360,-75 518,-75 "/>
<path fill="none" stroke="black" d="M518,-75C524,-75 530,-81 530,-87"/>
<polyline fill="none" stroke="black" points="530,-87 530,-295 "/>
<path fill="none" stroke="black" d="M530,-295C530,-301 524,-307 518,-307"/>
<polyline fill="none" stroke="black" points="518,-307 360,-307 "/>
<path fill="none" stroke="black" d="M360,-307C354,-307 348,-301 348,-295"/>
<polyline fill="none" stroke="black" points="348,-295 348,-87 "/>
<path fill="none" stroke="black" d="M348,-87C348,-81 354,-75 360,-75"/>
<text text-anchor="middle" x="439" y="-290.4" font-family="Times Roman,serif" font-size="14.00">Ticket</text>
<polyline fill="none" stroke="black" points="348,-281 530,-281 "/>
<text text-anchor="start" x="356" y="-264.4" font-family="Times Roman,serif" font-size="14.00">id :integer</text>
<text text-anchor="start" x="356" y="-246.4" font-family="Times Roman,serif" font-size="14.00">asunto :string</text>
<text text-anchor="start" x="356" y="-228.4" font-family="Times Roman,serif" font-size="14.00">urgencia :integer</text>
<text text-anchor="start" x="356" y="-210.4" font-family="Times Roman,serif" font-size="14.00">empresa_id :integer</text>
<text text-anchor="start" x="356" y="-192.4" font-family="Times Roman,serif" font-size="14.00">usuario_id :integer</text>
<text text-anchor="start" x="356" y="-174.4" font-family="Times Roman,serif" font-size="14.00">empleado_id :integer</text>
<text text-anchor="start" x="356" y="-156.4" font-family="Times Roman,serif" font-size="14.00">categoria_id :integer</text>
<text text-anchor="start" x="356" y="-138.4" font-family="Times Roman,serif" font-size="14.00">subcategoria_id :integer</text>
<text text-anchor="start" x="356" y="-120.4" font-family="Times Roman,serif" font-size="14.00">area_id :integer</text>
<text text-anchor="start" x="356" y="-102.4" font-family="Times Roman,serif" font-size="14.00">created_at :datetime</text>
<text text-anchor="start" x="356" y="-84.4" font-family="Times Roman,serif" font-size="14.00">updated_at :datetime</text>
</g>
<!-- Usuario&#45;&gt;Ticket -->
<g id="edge2" class="edge"><title>Usuario&#45;&gt;Ticket</title>
<path fill="none" stroke="#6a0c1c" d="M200.45,-361.185C243.551,-330.436 295.38,-293.46 339.701,-261.841"/>
<ellipse fill="none" stroke="#6a0c1c" cx="197.025" cy="-363.629" rx="4.00002" ry="4.00002"/>
<polygon fill="#6a0c1c" stroke="#6a0c1c" points="339.745,-261.81 350.499,-259.666 343.815,-258.906 347.886,-256.002 347.886,-256.002 347.886,-256.002 343.815,-258.906 345.272,-252.339 339.745,-261.81 339.745,-261.81"/>
</g>
<!-- Area -->
<g id="node3" class="node"><title>Area</title>
<polyline fill="none" stroke="black" points="334.5,-759 475.5,-759 "/>
<path fill="none" stroke="black" d="M475.5,-759C481.5,-759 487.5,-765 487.5,-771"/>
<polyline fill="none" stroke="black" points="487.5,-771 487.5,-871 "/>
<path fill="none" stroke="black" d="M487.5,-871C487.5,-877 481.5,-883 475.5,-883"/>
<polyline fill="none" stroke="black" points="475.5,-883 334.5,-883 "/>
<path fill="none" stroke="black" d="M334.5,-883C328.5,-883 322.5,-877 322.5,-871"/>
<polyline fill="none" stroke="black" points="322.5,-871 322.5,-771 "/>
<path fill="none" stroke="black" d="M322.5,-771C322.5,-765 328.5,-759 334.5,-759"/>
<text text-anchor="middle" x="405" y="-866.4" font-family="Times Roman,serif" font-size="14.00">Area</text>
<polyline fill="none" stroke="black" points="322.5,-857 487.5,-857 "/>
<text text-anchor="start" x="330.5" y="-840.4" font-family="Times Roman,serif" font-size="14.00">id :integer</text>
<text text-anchor="start" x="330.5" y="-822.4" font-family="Times Roman,serif" font-size="14.00">name :string</text>
<text text-anchor="start" x="330.5" y="-804.4" font-family="Times Roman,serif" font-size="14.00">empresa_id :integer</text>
<text text-anchor="start" x="330.5" y="-786.4" font-family="Times Roman,serif" font-size="14.00">created_at :datetime</text>
<text text-anchor="start" x="330.5" y="-768.4" font-family="Times Roman,serif" font-size="14.00">updated_at :datetime</text>
</g>
<!-- Empleado -->
<g id="node5" class="node"><title>Empleado</title>
<polyline fill="none" stroke="black" points="114.5,-543 255.5,-543 "/>
<path fill="none" stroke="black" d="M255.5,-543C261.5,-543 267.5,-549 267.5,-555"/>
<polyline fill="none" stroke="black" points="267.5,-555 267.5,-709 "/>
<path fill="none" stroke="black" d="M267.5,-709C267.5,-715 261.5,-721 255.5,-721"/>
<polyline fill="none" stroke="black" points="255.5,-721 114.5,-721 "/>
<path fill="none" stroke="black" d="M114.5,-721C108.5,-721 102.5,-715 102.5,-709"/>
<polyline fill="none" stroke="black" points="102.5,-709 102.5,-555 "/>
<path fill="none" stroke="black" d="M102.5,-555C102.5,-549 108.5,-543 114.5,-543"/>
<text text-anchor="middle" x="185" y="-704.4" font-family="Times Roman,serif" font-size="14.00">Empleado</text>
<polyline fill="none" stroke="black" points="102.5,-695 267.5,-695 "/>
<text text-anchor="start" x="110.5" y="-678.4" font-family="Times Roman,serif" font-size="14.00">id :integer</text>
<text text-anchor="start" x="110.5" y="-660.4" font-family="Times Roman,serif" font-size="14.00">nombres :string</text>
<text text-anchor="start" x="110.5" y="-642.4" font-family="Times Roman,serif" font-size="14.00">apellidos :string</text>
<text text-anchor="start" x="110.5" y="-624.4" font-family="Times Roman,serif" font-size="14.00">codigo :string</text>
<text text-anchor="start" x="110.5" y="-606.4" font-family="Times Roman,serif" font-size="14.00">empresa_id :integer</text>
<text text-anchor="start" x="110.5" y="-588.4" font-family="Times Roman,serif" font-size="14.00">area_id :integer</text>
<text text-anchor="start" x="110.5" y="-570.4" font-family="Times Roman,serif" font-size="14.00">created_at :datetime</text>
<text text-anchor="start" x="110.5" y="-552.4" font-family="Times Roman,serif" font-size="14.00">updated_at :datetime</text>
</g>
<!-- Area&#45;&gt;Empleado -->
<g id="edge6" class="edge"><title>Area&#45;&gt;Empleado</title>
<path fill="none" stroke="#27171c" d="M315.606,-754.729C302.11,-744.058 288.524,-732.923 276,-722 275.741,-721.774 275.482,-721.548 275.222,-721.321"/>
<ellipse fill="none" stroke="#27171c" cx="319.075" cy="-757.455" rx="4.00002" ry="4.00002"/>
<polygon fill="#27171c" stroke="#27171c" points="275.134,-721.242 270.649,-711.235 271.397,-717.921 267.66,-714.599 267.66,-714.599 267.66,-714.599 271.397,-717.921 264.67,-717.962 275.134,-721.242 275.134,-721.242"/>
</g>
<!-- Categoria -->
<g id="node6" class="node"><title>Categoria</title>
<polyline fill="none" stroke="black" points="296.5,-570 437.5,-570 "/>
<path fill="none" stroke="black" d="M437.5,-570C443.5,-570 449.5,-576 449.5,-582"/>
<polyline fill="none" stroke="black" points="449.5,-582 449.5,-682 "/>
<path fill="none" stroke="black" d="M449.5,-682C449.5,-688 443.5,-694 437.5,-694"/>
<polyline fill="none" stroke="black" points="437.5,-694 296.5,-694 "/>
<path fill="none" stroke="black" d="M296.5,-694C290.5,-694 284.5,-688 284.5,-682"/>
<polyline fill="none" stroke="black" points="284.5,-682 284.5,-582 "/>
<path fill="none" stroke="black" d="M284.5,-582C284.5,-576 290.5,-570 296.5,-570"/>
<text text-anchor="middle" x="367" y="-677.4" font-family="Times Roman,serif" font-size="14.00">Categoria</text>
<polyline fill="none" stroke="black" points="284.5,-668 449.5,-668 "/>
<text text-anchor="start" x="292.5" y="-651.4" font-family="Times Roman,serif" font-size="14.00">id :integer</text>
<text text-anchor="start" x="292.5" y="-633.4" font-family="Times Roman,serif" font-size="14.00">name :string</text>
<text text-anchor="start" x="292.5" y="-615.4" font-family="Times Roman,serif" font-size="14.00">area_id :integer</text>
<text text-anchor="start" x="292.5" y="-597.4" font-family="Times Roman,serif" font-size="14.00">created_at :datetime</text>
<text text-anchor="start" x="292.5" y="-579.4" font-family="Times Roman,serif" font-size="14.00">updated_at :datetime</text>
</g>
<!-- Area&#45;&gt;Categoria -->
<g id="edge4" class="edge"><title>Area&#45;&gt;Categoria</title>
<path fill="none" stroke="#e962b7" d="M390.919,-750.964C387.847,-735.687 384.591,-719.494 381.504,-704.138"/>
<ellipse fill="none" stroke="#e962b7" cx="391.716" cy="-754.931" rx="4.00001" ry="4.00001"/>
<polygon fill="#e962b7" stroke="#e962b7" points="381.474,-703.989 383.914,-693.298 380.488,-699.087 379.503,-694.185 379.503,-694.185 379.503,-694.185 380.488,-699.087 375.091,-695.072 381.474,-703.989 381.474,-703.989"/>
</g>
<!-- Area&#45;&gt;Ticket -->
<g id="edge8" class="edge"><title>Area&#45;&gt;Ticket</title>
<path fill="none" stroke="#5adc09" d="M447.483,-751.655C451.799,-741.983 455.505,-731.945 458,-722 491.925,-586.754 479.163,-426.095 463.021,-317.186"/>
<ellipse fill="none" stroke="#5adc09" cx="445.764" cy="-755.346" rx="4.00002" ry="4.00002"/>
<polygon fill="#5adc09" stroke="#5adc09" points="462.997,-317.027 465.949,-306.466 462.248,-312.083 461.5,-307.139 461.5,-307.139 461.5,-307.139 462.248,-312.083 457.051,-307.813 462.997,-317.027 462.997,-317.027"/>
</g>
<!-- Role -->
<g id="node4" class="node"><title>Role</title>
<polyline fill="none" stroke="black" points="114.5,-768 255.5,-768 "/>
<path fill="none" stroke="black" d="M255.5,-768C261.5,-768 267.5,-774 267.5,-780"/>
<polyline fill="none" stroke="black" points="267.5,-780 267.5,-862 "/>
<path fill="none" stroke="black" d="M267.5,-862C267.5,-868 261.5,-874 255.5,-874"/>
<polyline fill="none" stroke="black" points="255.5,-874 114.5,-874 "/>
<path fill="none" stroke="black" d="M114.5,-874C108.5,-874 102.5,-868 102.5,-862"/>
<polyline fill="none" stroke="black" points="102.5,-862 102.5,-780 "/>
<path fill="none" stroke="black" d="M102.5,-780C102.5,-774 108.5,-768 114.5,-768"/>
<text text-anchor="middle" x="185" y="-857.4" font-family="Times Roman,serif" font-size="14.00">Role</text>
<polyline fill="none" stroke="black" points="102.5,-848 267.5,-848 "/>
<text text-anchor="start" x="110.5" y="-831.4" font-family="Times Roman,serif" font-size="14.00">id :integer</text>
<text text-anchor="start" x="110.5" y="-813.4" font-family="Times Roman,serif" font-size="14.00">name :string</text>
<text text-anchor="start" x="110.5" y="-795.4" font-family="Times Roman,serif" font-size="14.00">created_at :datetime</text>
<text text-anchor="start" x="110.5" y="-777.4" font-family="Times Roman,serif" font-size="14.00">updated_at :datetime</text>
</g>
<!-- Role&#45;&gt;Empleado -->
<g id="edge10" class="edge"><title>Role&#45;&gt;Empleado</title>
<path fill="none" stroke="#d22644" d="M185,-759.523C185,-750.438 185,-740.887 185,-731.27"/>
<ellipse fill="none" stroke="#d22644" cx="185" cy="-763.85" rx="4" ry="4"/>
<polygon fill="#d22644" stroke="#d22644" points="185,-731.241 189.5,-721.241 185,-726.241 185,-721.241 185,-721.241 185,-721.241 185,-726.241 180.5,-721.241 185,-731.241 185,-731.241"/>
</g>
<!-- Subcategoria -->
<g id="node7" class="node"><title>Subcategoria</title>
<polyline fill="none" stroke="black" points="258.5,-363 399.5,-363 "/>
<path fill="none" stroke="black" d="M399.5,-363C405.5,-363 411.5,-369 411.5,-375"/>
<polyline fill="none" stroke="black" points="411.5,-375 411.5,-475 "/>
<path fill="none" stroke="black" d="M411.5,-475C411.5,-481 405.5,-487 399.5,-487"/>
<polyline fill="none" stroke="black" points="399.5,-487 258.5,-487 "/>
<path fill="none" stroke="black" d="M258.5,-487C252.5,-487 246.5,-481 246.5,-475"/>
<polyline fill="none" stroke="black" points="246.5,-475 246.5,-375 "/>
<path fill="none" stroke="black" d="M246.5,-375C246.5,-369 252.5,-363 258.5,-363"/>
<text text-anchor="middle" x="329" y="-470.4" font-family="Times Roman,serif" font-size="14.00">Subcategoria</text>
<polyline fill="none" stroke="black" points="246.5,-461 411.5,-461 "/>
<text text-anchor="start" x="254.5" y="-444.4" font-family="Times Roman,serif" font-size="14.00">id :integer</text>
<text text-anchor="start" x="254.5" y="-426.4" font-family="Times Roman,serif" font-size="14.00">name :string</text>
<text text-anchor="start" x="254.5" y="-408.4" font-family="Times Roman,serif" font-size="14.00">categoria_id :integer</text>
<text text-anchor="start" x="254.5" y="-390.4" font-family="Times Roman,serif" font-size="14.00">created_at :datetime</text>
<text text-anchor="start" x="254.5" y="-372.4" font-family="Times Roman,serif" font-size="14.00">updated_at :datetime</text>
</g>
<!-- Categoria&#45;&gt;Subcategoria -->
<g id="edge12" class="edge"><title>Categoria&#45;&gt;Subcategoria</title>
<path fill="none" stroke="#ceca2e" d="M354.111,-561.788C350.288,-540.963 346.095,-518.125 342.25,-497.178"/>
<ellipse fill="none" stroke="#ceca2e" cx="354.876" cy="-565.959" rx="4.00001" ry="4.00001"/>
<polygon fill="#ceca2e" stroke="#ceca2e" points="342.199,-496.899 344.819,-486.25 341.296,-491.981 340.393,-487.063 340.393,-487.063 340.393,-487.063 341.296,-491.981 335.967,-487.876 342.199,-496.899 342.199,-496.899"/>
</g>
<!-- Categoria&#45;&gt;Ticket -->
<g id="edge14" class="edge"><title>Categoria&#45;&gt;Ticket</title>
<path fill="none" stroke="#7dad4c" d="M401.214,-562.352C408.659,-544.388 415.612,-524.806 420,-506 434.238,-444.972 439.546,-375.595 441.061,-317.512"/>
<ellipse fill="none" stroke="#7dad4c" cx="399.559" cy="-566.261" rx="4.00002" ry="4.00002"/>
<polygon fill="#7dad4c" stroke="#7dad4c" points="441.069,-317.173 445.793,-307.277 441.182,-312.175 441.294,-307.176 441.294,-307.176 441.294,-307.176 441.182,-312.175 436.795,-307.074 441.069,-317.173 441.069,-317.173"/>
</g>
<!-- Subcategoria&#45;&gt;Ticket -->
<g id="edge16" class="edge"><title>Subcategoria&#45;&gt;Ticket</title>
<path fill="none" stroke="#e05b68" d="M361.654,-355.537C367.473,-343.157 373.695,-329.921 379.987,-316.536"/>
<ellipse fill="none" stroke="#e05b68" cx="359.891" cy="-359.287" rx="4.00002" ry="4.00002"/>
<polygon fill="#e05b68" stroke="#e05b68" points="380.096,-316.304 388.423,-309.169 382.223,-311.779 384.351,-307.254 384.351,-307.254 384.351,-307.254 382.223,-311.779 380.278,-305.34 380.096,-316.304 380.096,-316.304"/>
</g>
<!-- Empresa -->
<g id="node8" class="node"><title>Empresa</title>
<polyline fill="none" stroke="black" points="279.5,-921 420.5,-921 "/>
<path fill="none" stroke="black" d="M420.5,-921C426.5,-921 432.5,-927 432.5,-933"/>
<polyline fill="none" stroke="black" points="432.5,-933 432.5,-1033 "/>
<path fill="none" stroke="black" d="M432.5,-1033C432.5,-1039 426.5,-1045 420.5,-1045"/>
<polyline fill="none" stroke="black" points="420.5,-1045 279.5,-1045 "/>
<path fill="none" stroke="black" d="M279.5,-1045C273.5,-1045 267.5,-1039 267.5,-1033"/>
<polyline fill="none" stroke="black" points="267.5,-1033 267.5,-933 "/>
<path fill="none" stroke="black" d="M267.5,-933C267.5,-927 273.5,-921 279.5,-921"/>
<text text-anchor="middle" x="350" y="-1028.4" font-family="Times Roman,serif" font-size="14.00">Empresa</text>
<polyline fill="none" stroke="black" points="267.5,-1019 432.5,-1019 "/>
<text text-anchor="start" x="275.5" y="-1002.4" font-family="Times Roman,serif" font-size="14.00">id :integer</text>
<text text-anchor="start" x="275.5" y="-984.4" font-family="Times Roman,serif" font-size="14.00">name :string</text>
<text text-anchor="start" x="275.5" y="-966.4" font-family="Times Roman,serif" font-size="14.00">nivel :string</text>
<text text-anchor="start" x="275.5" y="-948.4" font-family="Times Roman,serif" font-size="14.00">created_at :datetime</text>
<text text-anchor="start" x="275.5" y="-930.4" font-family="Times Roman,serif" font-size="14.00">updated_at :datetime</text>
</g>
<!-- Empresa&#45;&gt;Usuario -->
<g id="edge20" class="edge"><title>Empresa&#45;&gt;Usuario</title>
<path fill="none" stroke="#3562b9" d="M260.057,-920.464C259.705,-920.308 259.352,-920.153 259,-920 190.168,-890.069 141.079,-942.458 94,-884 10.2964,-780.065 43.2947,-615.866 76.1851,-514.611"/>
<ellipse fill="none" stroke="#3562b9" cx="263.836" cy="-922.239" rx="4.00002" ry="4.00002"/>
<polygon fill="#3562b9" stroke="#3562b9" points="76.2199,-514.506 83.6357,-506.427 77.7919,-509.759 79.3638,-505.013 79.3638,-505.013 79.3638,-505.013 77.7919,-509.759 75.092,-503.598 76.2199,-514.506 76.2199,-514.506"/>
</g>
<!-- Empresa&#45;&gt;Area -->
<g id="edge18" class="edge"><title>Empresa&#45;&gt;Area</title>
<path fill="none" stroke="#71c1d2" d="M373.696,-913.205C375.987,-906.457 378.314,-899.603 380.612,-892.835"/>
<ellipse fill="none" stroke="#71c1d2" cx="372.393" cy="-917.042" rx="4.00001" ry="4.00001"/>
<polygon fill="#71c1d2" stroke="#71c1d2" points="380.734,-892.473 388.21,-884.45 382.342,-887.738 383.949,-883.004 383.949,-883.004 383.949,-883.004 382.342,-887.738 379.688,-881.557 380.734,-892.473 380.734,-892.473"/>
</g>
<!-- Empresa&#45;&gt;Empleado -->
<g id="edge22" class="edge"><title>Empresa&#45;&gt;Empleado</title>
<path fill="none" stroke="#e51d4e" d="M324.032,-913.101C320.573,-903.357 317.14,-893.449 314,-884 295.554,-828.493 301.925,-810.432 276,-758 271.33,-748.555 265.968,-739.06 260.233,-729.75"/>
<ellipse fill="none" stroke="#e51d4e" cx="325.461" cy="-917.102" rx="4.00001" ry="4.00001"/>
<polygon fill="#e51d4e" stroke="#e51d4e" points="260.21,-729.714 258.675,-718.856 257.54,-725.486 254.87,-721.259 254.87,-721.259 254.87,-721.259 257.54,-725.486 251.065,-723.662 260.21,-729.714 260.21,-729.714"/>
</g>
<!-- Empresa&#45;&gt;Ticket -->
<g id="edge24" class="edge"><title>Empresa&#45;&gt;Ticket</title>
<path fill="none" stroke="#0dcb1b" d="M439.522,-941.998C462.007,-927.106 483.325,-907.908 496,-884 590.932,-704.93 536.829,-462.671 488.343,-317.125"/>
<ellipse fill="none" stroke="#0dcb1b" cx="435.884" cy="-944.325" rx="4.00002" ry="4.00002"/>
<polygon fill="#0dcb1b" stroke="#0dcb1b" points="488.207,-316.724 489.276,-305.81 486.61,-311.986 485.012,-307.248 485.012,-307.248 485.012,-307.248 486.61,-311.986 480.748,-308.686 488.207,-316.724 488.207,-316.724"/>
</g>
<!-- Comentario -->
<g id="node23" class="node"><title>Comentario</title>
<ellipse fill="none" stroke="black" cx="439" cy="-19" rx="68.0887" ry="18.3848"/>
<text text-anchor="middle" x="439" y="-15.4" font-family="Times Roman,serif" font-size="14.00">Comentario</text>
</g>
<!-- Ticket&#45;&gt;Comentario -->
<g id="edge26" class="edge"><title>Ticket&#45;&gt;Comentario</title>
<path fill="none" stroke="#e933f6" d="M439,-66.5901C439,-59.8298 439,-53.4681 439,-47.73"/>
<ellipse fill="none" stroke="#e933f6" cx="439" cy="-70.8435" rx="4" ry="4"/>
<polygon fill="#e933f6" stroke="#e933f6" points="439,-47.5231 443.5,-37.5231 439,-42.5231 439,-37.5231 439,-37.5231 439,-37.5231 439,-42.5231 434.5,-37.5232 439,-47.5231 439,-47.5231"/>
</g>
</g>
</svg>
