<?xml version="1.0" encoding="UTF-8" standalone="no"?>
<!DOCTYPE svg PUBLIC "-//W3C//DTD SVG 1.1//EN"
 "http://www.w3.org/Graphics/SVG/1.1/DTD/svg11.dtd">
<!-- Generated by graphviz version 2.26.3 (20100126.1600)
 -->
<!-- Title: models_diagram Pages: 1 -->
<svg width="641pt" height="1054pt"
 viewBox="0.00 0.00 641.00 1054.00" xmlns="http://www.w3.org/2000/svg" xmlns:xlink="http://www.w3.org/1999/xlink">
<g id="graph1" class="graph" transform="scale(1 1) rotate(0) translate(4 1050)">
<title>models_diagram</title>
<polygon fill="white" stroke="white" points="-4,5 -4,-1050 638,-1050 638,5 -4,5"/>
<!-- _diagram_info -->
<g id="node1" class="node"><title>_diagram_info</title>
<text text-anchor="start" x="8" y="-1013.8" font-family="Times Roman,serif" font-size="13.00">Models diagram</text>
<text text-anchor="start" x="8" y="-996.8" font-family="Times Roman,serif" font-size="13.00">Date: Jan 30 2015 &#45; 19:03</text>
<text text-anchor="start" x="8" y="-979.8" font-family="Times Roman,serif" font-size="13.00">Migration version: 20150130230951</text>
<text text-anchor="start" x="8" y="-962.8" font-family="Times Roman,serif" font-size="13.00">Generated by RailRoady 1.3.0</text>
<text text-anchor="start" x="8" y="-945.8" font-family="Times Roman,serif" font-size="13.00">http://railroady.prestonlee.com</text>
</g>
<!-- Usuario -->
<g id="node2" class="node"><title>Usuario</title>
<polyline fill="none" stroke="black" points="40.5,-507 181.5,-507 "/>
<path fill="none" stroke="black" d="M181.5,-507C187.5,-507 193.5,-513 193.5,-519"/>
<polyline fill="none" stroke="black" points="193.5,-519 193.5,-655 "/>
<path fill="none" stroke="black" d="M193.5,-655C193.5,-661 187.5,-667 181.5,-667"/>
<polyline fill="none" stroke="black" points="181.5,-667 40.5,-667 "/>
<path fill="none" stroke="black" d="M40.5,-667C34.5,-667 28.5,-661 28.5,-655"/>
<polyline fill="none" stroke="black" points="28.5,-655 28.5,-519 "/>
<path fill="none" stroke="black" d="M28.5,-519C28.5,-513 34.5,-507 40.5,-507"/>
<text text-anchor="middle" x="111" y="-650.4" font-family="Times Roman,serif" font-size="14.00">Usuario</text>
<polyline fill="none" stroke="black" points="28.5,-641 193.5,-641 "/>
<text text-anchor="start" x="36.5" y="-624.4" font-family="Times Roman,serif" font-size="14.00">id :integer</text>
<text text-anchor="start" x="36.5" y="-606.4" font-family="Times Roman,serif" font-size="14.00">nombres :string</text>
<text text-anchor="start" x="36.5" y="-588.4" font-family="Times Roman,serif" font-size="14.00">apellidos :string</text>
<text text-anchor="start" x="36.5" y="-570.4" font-family="Times Roman,serif" font-size="14.00">codigo :string</text>
<text text-anchor="start" x="36.5" y="-552.4" font-family="Times Roman,serif" font-size="14.00">empresa_id :integer</text>
<text text-anchor="start" x="36.5" y="-534.4" font-family="Times Roman,serif" font-size="14.00">created_at :datetime</text>
<text text-anchor="start" x="36.5" y="-516.4" font-family="Times Roman,serif" font-size="14.00">updated_at :datetime</text>
</g>
<!-- Ticket -->
<g id="node9" class="node"><title>Ticket</title>
<polyline fill="none" stroke="black" points="286,-75 444,-75 "/>
<path fill="none" stroke="black" d="M444,-75C450,-75 456,-81 456,-87"/>
<polyline fill="none" stroke="black" points="456,-87 456,-295 "/>
<path fill="none" stroke="black" d="M456,-295C456,-301 450,-307 444,-307"/>
<polyline fill="none" stroke="black" points="444,-307 286,-307 "/>
<path fill="none" stroke="black" d="M286,-307C280,-307 274,-301 274,-295"/>
<polyline fill="none" stroke="black" points="274,-295 274,-87 "/>
<path fill="none" stroke="black" d="M274,-87C274,-81 280,-75 286,-75"/>
<text text-anchor="middle" x="365" y="-290.4" font-family="Times Roman,serif" font-size="14.00">Ticket</text>
<polyline fill="none" stroke="black" points="274,-281 456,-281 "/>
<text text-anchor="start" x="282" y="-264.4" font-family="Times Roman,serif" font-size="14.00">id :integer</text>
<text text-anchor="start" x="282" y="-246.4" font-family="Times Roman,serif" font-size="14.00">asunto :string</text>
<text text-anchor="start" x="282" y="-228.4" font-family="Times Roman,serif" font-size="14.00">urgencia :integer</text>
<text text-anchor="start" x="282" y="-210.4" font-family="Times Roman,serif" font-size="14.00">empresa_id :integer</text>
<text text-anchor="start" x="282" y="-192.4" font-family="Times Roman,serif" font-size="14.00">usuario_id :integer</text>
<text text-anchor="start" x="282" y="-174.4" font-family="Times Roman,serif" font-size="14.00">empleado_id :integer</text>
<text text-anchor="start" x="282" y="-156.4" font-family="Times Roman,serif" font-size="14.00">categoria_id :integer</text>
<text text-anchor="start" x="282" y="-138.4" font-family="Times Roman,serif" font-size="14.00">subcategoria_id :integer</text>
<text text-anchor="start" x="282" y="-120.4" font-family="Times Roman,serif" font-size="14.00">area_id :integer</text>
<text text-anchor="start" x="282" y="-102.4" font-family="Times Roman,serif" font-size="14.00">created_at :datetime</text>
<text text-anchor="start" x="282" y="-84.4" font-family="Times Roman,serif" font-size="14.00">updated_at :datetime</text>
</g>
<!-- Usuario&#45;&gt;Ticket -->
<g id="edge2" class="edge"><title>Usuario&#45;&gt;Ticket</title>
<path fill="none" stroke="#56ca3c" d="M115.4,-498.952C121.315,-450.122 134.596,-390.133 164,-344 189.201,-304.461 228.411,-271.262 265.532,-246.003"/>
<ellipse fill="none" stroke="#56ca3c" cx="114.934" cy="-503.025" rx="4.00001" ry="4.00001"/>
<polygon fill="#56ca3c" stroke="#56ca3c" points="265.595,-245.962 276.411,-244.152 269.754,-243.185 273.912,-240.409 273.912,-240.409 273.912,-240.409 269.754,-243.185 271.414,-236.667 265.595,-245.962 265.595,-245.962"/>
</g>
<!-- Area -->
<g id="node3" class="node"><title>Area</title>
<polyline fill="none" stroke="black" points="260.5,-732 401.5,-732 "/>
<path fill="none" stroke="black" d="M401.5,-732C407.5,-732 413.5,-738 413.5,-744"/>
<polyline fill="none" stroke="black" points="413.5,-744 413.5,-844 "/>
<path fill="none" stroke="black" d="M413.5,-844C413.5,-850 407.5,-856 401.5,-856"/>
<polyline fill="none" stroke="black" points="401.5,-856 260.5,-856 "/>
<path fill="none" stroke="black" d="M260.5,-856C254.5,-856 248.5,-850 248.5,-844"/>
<polyline fill="none" stroke="black" points="248.5,-844 248.5,-744 "/>
<path fill="none" stroke="black" d="M248.5,-744C248.5,-738 254.5,-732 260.5,-732"/>
<text text-anchor="middle" x="331" y="-839.4" font-family="Times Roman,serif" font-size="14.00">Area</text>
<polyline fill="none" stroke="black" points="248.5,-830 413.5,-830 "/>
<text text-anchor="start" x="256.5" y="-813.4" font-family="Times Roman,serif" font-size="14.00">id :integer</text>
<text text-anchor="start" x="256.5" y="-795.4" font-family="Times Roman,serif" font-size="14.00">name :string</text>
<text text-anchor="start" x="256.5" y="-777.4" font-family="Times Roman,serif" font-size="14.00">empresa_id :integer</text>
<text text-anchor="start" x="256.5" y="-759.4" font-family="Times Roman,serif" font-size="14.00">created_at :datetime</text>
<text text-anchor="start" x="256.5" y="-741.4" font-family="Times Roman,serif" font-size="14.00">updated_at :datetime</text>
</g>
<!-- Categoria -->
<g id="node6" class="node"><title>Categoria</title>
<polyline fill="none" stroke="black" points="222.5,-525 363.5,-525 "/>
<path fill="none" stroke="black" d="M363.5,-525C369.5,-525 375.5,-531 375.5,-537"/>
<polyline fill="none" stroke="black" points="375.5,-537 375.5,-637 "/>
<path fill="none" stroke="black" d="M375.5,-637C375.5,-643 369.5,-649 363.5,-649"/>
<polyline fill="none" stroke="black" points="363.5,-649 222.5,-649 "/>
<path fill="none" stroke="black" d="M222.5,-649C216.5,-649 210.5,-643 210.5,-637"/>
<polyline fill="none" stroke="black" points="210.5,-637 210.5,-537 "/>
<path fill="none" stroke="black" d="M210.5,-537C210.5,-531 216.5,-525 222.5,-525"/>
<text text-anchor="middle" x="293" y="-632.4" font-family="Times Roman,serif" font-size="14.00">Categoria</text>
<polyline fill="none" stroke="black" points="210.5,-623 375.5,-623 "/>
<text text-anchor="start" x="218.5" y="-606.4" font-family="Times Roman,serif" font-size="14.00">id :integer</text>
<text text-anchor="start" x="218.5" y="-588.4" font-family="Times Roman,serif" font-size="14.00">name :string</text>
<text text-anchor="start" x="218.5" y="-570.4" font-family="Times Roman,serif" font-size="14.00">area_id :integer</text>
<text text-anchor="start" x="218.5" y="-552.4" font-family="Times Roman,serif" font-size="14.00">created_at :datetime</text>
<text text-anchor="start" x="218.5" y="-534.4" font-family="Times Roman,serif" font-size="14.00">updated_at :datetime</text>
</g>
<!-- Area&#45;&gt;Categoria -->
<g id="edge4" class="edge"><title>Area&#45;&gt;Categoria</title>
<path fill="none" stroke="#94e8ab" d="M318.111,-723.788C314.288,-702.963 310.095,-680.125 306.25,-659.178"/>
<ellipse fill="none" stroke="#94e8ab" cx="318.876" cy="-727.959" rx="4.00001" ry="4.00001"/>
<polygon fill="#94e8ab" stroke="#94e8ab" points="306.199,-658.899 308.819,-648.25 305.296,-653.981 304.393,-649.063 304.393,-649.063 304.393,-649.063 305.296,-653.981 299.967,-649.876 306.199,-658.899 306.199,-658.899"/>
</g>
<!-- Area&#45;&gt;Ticket -->
<g id="edge6" class="edge"><title>Area&#45;&gt;Ticket</title>
<path fill="none" stroke="#b2151d" d="M366.127,-724.235C373.507,-706.346 380.201,-686.828 384,-668 407.627,-550.892 398.622,-414.429 386.243,-317.538"/>
<ellipse fill="none" stroke="#b2151d" cx="364.488" cy="-728.111" rx="4.00002" ry="4.00002"/>
<polygon fill="#b2151d" stroke="#b2151d" points="386.214,-317.318 389.379,-306.819 385.566,-312.36 384.917,-307.403 384.917,-307.403 384.917,-307.403 385.566,-312.36 380.455,-307.986 386.214,-317.318 386.214,-317.318"/>
</g>
<!-- Role -->
<g id="node4" class="node"><title>Role</title>
<polyline fill="none" stroke="black" points="480.5,-930 621.5,-930 "/>
<path fill="none" stroke="black" d="M621.5,-930C627.5,-930 633.5,-936 633.5,-942"/>
<polyline fill="none" stroke="black" points="633.5,-942 633.5,-1024 "/>
<path fill="none" stroke="black" d="M633.5,-1024C633.5,-1030 627.5,-1036 621.5,-1036"/>
<polyline fill="none" stroke="black" points="621.5,-1036 480.5,-1036 "/>
<path fill="none" stroke="black" d="M480.5,-1036C474.5,-1036 468.5,-1030 468.5,-1024"/>
<polyline fill="none" stroke="black" points="468.5,-1024 468.5,-942 "/>
<path fill="none" stroke="black" d="M468.5,-942C468.5,-936 474.5,-930 480.5,-930"/>
<text text-anchor="middle" x="551" y="-1019.4" font-family="Times Roman,serif" font-size="14.00">Role</text>
<polyline fill="none" stroke="black" points="468.5,-1010 633.5,-1010 "/>
<text text-anchor="start" x="476.5" y="-993.4" font-family="Times Roman,serif" font-size="14.00">id :integer</text>
<text text-anchor="start" x="476.5" y="-975.4" font-family="Times Roman,serif" font-size="14.00">name :string</text>
<text text-anchor="start" x="476.5" y="-957.4" font-family="Times Roman,serif" font-size="14.00">created_at :datetime</text>
<text text-anchor="start" x="476.5" y="-939.4" font-family="Times Roman,serif" font-size="14.00">updated_at :datetime</text>
</g>
<!-- Empleado -->
<g id="node5" class="node"><title>Empleado</title>
<polyline fill="none" stroke="black" points="480.5,-705 621.5,-705 "/>
<path fill="none" stroke="black" d="M621.5,-705C627.5,-705 633.5,-711 633.5,-717"/>
<polyline fill="none" stroke="black" points="633.5,-717 633.5,-871 "/>
<path fill="none" stroke="black" d="M633.5,-871C633.5,-877 627.5,-883 621.5,-883"/>
<polyline fill="none" stroke="black" points="621.5,-883 480.5,-883 "/>
<path fill="none" stroke="black" d="M480.5,-883C474.5,-883 468.5,-877 468.5,-871"/>
<polyline fill="none" stroke="black" points="468.5,-871 468.5,-717 "/>
<path fill="none" stroke="black" d="M468.5,-717C468.5,-711 474.5,-705 480.5,-705"/>
<text text-anchor="middle" x="551" y="-866.4" font-family="Times Roman,serif" font-size="14.00">Empleado</text>
<polyline fill="none" stroke="black" points="468.5,-857 633.5,-857 "/>
<text text-anchor="start" x="476.5" y="-840.4" font-family="Times Roman,serif" font-size="14.00">id :integer</text>
<text text-anchor="start" x="476.5" y="-822.4" font-family="Times Roman,serif" font-size="14.00">nombres :string</text>
<text text-anchor="start" x="476.5" y="-804.4" font-family="Times Roman,serif" font-size="14.00">apellidos :string</text>
<text text-anchor="start" x="476.5" y="-786.4" font-family="Times Roman,serif" font-size="14.00">codigo :string</text>
<text text-anchor="start" x="476.5" y="-768.4" font-family="Times Roman,serif" font-size="14.00">empresa_id :integer</text>
<text text-anchor="start" x="476.5" y="-750.4" font-family="Times Roman,serif" font-size="14.00">area_id :integer</text>
<text text-anchor="start" x="476.5" y="-732.4" font-family="Times Roman,serif" font-size="14.00">created_at :datetime</text>
<text text-anchor="start" x="476.5" y="-714.4" font-family="Times Roman,serif" font-size="14.00">updated_at :datetime</text>
</g>
<!-- Role&#45;&gt;Empleado -->
<g id="edge8" class="edge"><title>Role&#45;&gt;Empleado</title>
<path fill="none" stroke="#c8af6e" d="M551,-921.523C551,-912.438 551,-902.887 551,-893.27"/>
<ellipse fill="none" stroke="#c8af6e" cx="551" cy="-925.85" rx="4" ry="4"/>
<polygon fill="#c8af6e" stroke="#c8af6e" points="551,-893.241 555.5,-883.241 551,-888.241 551,-883.241 551,-883.241 551,-883.241 551,-888.241 546.5,-883.241 551,-893.241 551,-893.241"/>
</g>
<!-- Subcategoria -->
<g id="node7" class="node"><title>Subcategoria</title>
<polyline fill="none" stroke="black" points="184.5,-345 325.5,-345 "/>
<path fill="none" stroke="black" d="M325.5,-345C331.5,-345 337.5,-351 337.5,-357"/>
<polyline fill="none" stroke="black" points="337.5,-357 337.5,-457 "/>
<path fill="none" stroke="black" d="M337.5,-457C337.5,-463 331.5,-469 325.5,-469"/>
<polyline fill="none" stroke="black" points="325.5,-469 184.5,-469 "/>
<path fill="none" stroke="black" d="M184.5,-469C178.5,-469 172.5,-463 172.5,-457"/>
<polyline fill="none" stroke="black" points="172.5,-457 172.5,-357 "/>
<path fill="none" stroke="black" d="M172.5,-357C172.5,-351 178.5,-345 184.5,-345"/>
<text text-anchor="middle" x="255" y="-452.4" font-family="Times Roman,serif" font-size="14.00">Subcategoria</text>
<polyline fill="none" stroke="black" points="172.5,-443 337.5,-443 "/>
<text text-anchor="start" x="180.5" y="-426.4" font-family="Times Roman,serif" font-size="14.00">id :integer</text>
<text text-anchor="start" x="180.5" y="-408.4" font-family="Times Roman,serif" font-size="14.00">name :string</text>
<text text-anchor="start" x="180.5" y="-390.4" font-family="Times Roman,serif" font-size="14.00">categoria_id :integer</text>
<text text-anchor="start" x="180.5" y="-372.4" font-family="Times Roman,serif" font-size="14.00">created_at :datetime</text>
<text text-anchor="start" x="180.5" y="-354.4" font-family="Times Roman,serif" font-size="14.00">updated_at :datetime</text>
</g>
<!-- Categoria&#45;&gt;Subcategoria -->
<g id="edge10" class="edge"><title>Categoria&#45;&gt;Subcategoria</title>
<path fill="none" stroke="#2a5255" d="M278.158,-516.695C275.547,-504.33 272.827,-491.444 270.207,-479.033"/>
<ellipse fill="none" stroke="#2a5255" cx="279.043" cy="-520.888" rx="4.00001" ry="4.00001"/>
<polygon fill="#2a5255" stroke="#2a5255" points="270.197,-478.985 272.534,-468.271 269.164,-474.092 268.131,-469.2 268.131,-469.2 268.131,-469.2 269.164,-474.092 263.728,-470.13 270.197,-478.985 270.197,-478.985"/>
</g>
<!-- Categoria&#45;&gt;Ticket -->
<g id="edge12" class="edge"><title>Categoria&#45;&gt;Ticket</title>
<path fill="none" stroke="#1d168d" d="M329.423,-517.345C336,-502.103 342.023,-485.796 346,-470 358.34,-420.992 363.786,-365.708 365.904,-317.357"/>
<ellipse fill="none" stroke="#1d168d" cx="327.774" cy="-521.075" rx="4.00002" ry="4.00002"/>
<polygon fill="#1d168d" stroke="#1d168d" points="365.913,-317.141 370.804,-307.326 366.11,-312.145 366.307,-307.149 366.307,-307.149 366.307,-307.149 366.11,-312.145 361.811,-306.971 365.913,-317.141 365.913,-317.141"/>
</g>
<!-- Subcategoria&#45;&gt;Ticket -->
<g id="edge14" class="edge"><title>Subcategoria&#45;&gt;Ticket</title>
<path fill="none" stroke="#f108cb" d="M290.397,-337.493C293.871,-330.671 297.465,-323.614 301.113,-316.451"/>
<ellipse fill="none" stroke="#f108cb" cx="288.484" cy="-341.249" rx="4.00002" ry="4.00002"/>
<polygon fill="#f108cb" stroke="#f108cb" points="301.219,-316.242 309.767,-309.373 303.488,-311.787 305.757,-307.331 305.757,-307.331 305.757,-307.331 303.488,-311.787 301.747,-305.289 301.219,-316.242 301.219,-316.242"/>
</g>
<!-- Empresa -->
<g id="node8" class="node"><title>Empresa</title>
<polyline fill="none" stroke="black" points="279.5,-921 420.5,-921 "/>
<path fill="none" stroke="black" d="M420.5,-921C426.5,-921 432.5,-927 432.5,-933"/>
<polyline fill="none" stroke="black" points="432.5,-933 432.5,-1033 "/>
<path fill="none" stroke="black" d="M432.5,-1033C432.5,-1039 426.5,-1045 420.5,-1045"/>
<polyline fill="none" stroke="black" points="420.5,-1045 279.5,-1045 "/>
<path fill="none" stroke="black" d="M279.5,-1045C273.5,-1045 267.5,-1039 267.5,-1033"/>
<polyline fill="none" stroke="black" points="267.5,-1033 267.5,-933 "/>
<path fill="none" stroke="black" d="M267.5,-933C267.5,-927 273.5,-921 279.5,-921"/>
<text text-anchor="middle" x="350" y="-1028.4" font-family="Times Roman,serif" font-size="14.00">Empresa</text>
<polyline fill="none" stroke="black" points="267.5,-1019 432.5,-1019 "/>
<text text-anchor="start" x="275.5" y="-1002.4" font-family="Times Roman,serif" font-size="14.00">id :integer</text>
<text text-anchor="start" x="275.5" y="-984.4" font-family="Times Roman,serif" font-size="14.00">name :string</text>
<text text-anchor="start" x="275.5" y="-966.4" font-family="Times Roman,serif" font-size="14.00">nivel :string</text>
<text text-anchor="start" x="275.5" y="-948.4" font-family="Times Roman,serif" font-size="14.00">created_at :datetime</text>
<text text-anchor="start" x="275.5" y="-930.4" font-family="Times Roman,serif" font-size="14.00">updated_at :datetime</text>
</g>
<!-- Empresa&#45;&gt;Usuario -->
<g id="edge18" class="edge"><title>Empresa&#45;&gt;Usuario</title>
<path fill="none" stroke="#cc0b16" d="M266.544,-915.154C256.917,-905.297 247.779,-894.808 240,-884 194.41,-820.66 160.33,-738.678 138.684,-676.899"/>
<ellipse fill="none" stroke="#cc0b16" cx="269.437" cy="-918.051" rx="4.00002" ry="4.00002"/>
<polygon fill="#cc0b16" stroke="#cc0b16" points="138.585,-676.614 139.57,-665.692 136.951,-671.888 135.317,-667.163 135.317,-667.163 135.317,-667.163 136.951,-671.888 131.064,-668.634 138.585,-676.614 138.585,-676.614"/>
</g>
<!-- Empresa&#45;&gt;Area -->
<g id="edge16" class="edge"><title>Empresa&#45;&gt;Area</title>
<path fill="none" stroke="#1397a6" d="M342.909,-912.465C341.4,-897.449 339.803,-881.569 338.287,-866.483"/>
<ellipse fill="none" stroke="#1397a6" cx="343.352" cy="-916.873" rx="4" ry="4"/>
<polygon fill="#1397a6" stroke="#1397a6" points="338.252,-866.135 341.729,-855.735 337.752,-861.16 337.251,-856.185 337.251,-856.185 337.251,-856.185 337.752,-861.16 332.774,-856.635 338.252,-866.135 338.252,-866.135"/>
</g>
<!-- Empresa&#45;&gt;Empleado -->
<g id="edge20" class="edge"><title>Empresa&#45;&gt;Empleado</title>
<path fill="none" stroke="#50e696" d="M422.022,-915.278C434.578,-903.471 447.78,-891.058 460.752,-878.86"/>
<ellipse fill="none" stroke="#50e696" cx="419.007" cy="-918.112" rx="4.00002" ry="4.00002"/>
<polygon fill="#50e696" stroke="#50e696" points="461.071,-878.56 471.439,-874.988 464.714,-875.135 468.356,-871.71 468.356,-871.71 468.356,-871.71 464.714,-875.135 465.274,-868.431 461.071,-878.56 461.071,-878.56"/>
</g>
<!-- Empresa&#45;&gt;Ticket -->
<g id="edge22" class="edge"><title>Empresa&#45;&gt;Ticket</title>
<path fill="none" stroke="#12a187" d="M408.219,-913.878C413.833,-904.316 418.668,-894.246 422,-884 483.976,-693.412 441.598,-458.574 404.149,-317.031"/>
<ellipse fill="none" stroke="#12a187" cx="406.097" cy="-917.337" rx="4.00002" ry="4.00002"/>
<polygon fill="#12a187" stroke="#12a187" points="404.05,-316.662 405.809,-305.839 402.756,-311.833 401.462,-307.003 401.462,-307.003 401.462,-307.003 402.756,-311.833 397.116,-308.167 404.05,-316.662 404.05,-316.662"/>
</g>
<!-- Comentario -->
<g id="node22" class="node"><title>Comentario</title>
<ellipse fill="none" stroke="black" cx="365" cy="-19" rx="68.0887" ry="18.3848"/>
<text text-anchor="middle" x="365" y="-15.4" font-family="Times Roman,serif" font-size="14.00">Comentario</text>
</g>
<!-- Ticket&#45;&gt;Comentario -->
<g id="edge24" class="edge"><title>Ticket&#45;&gt;Comentario</title>
<path fill="none" stroke="#a8cd53" d="M365,-66.5901C365,-59.8298 365,-53.4681 365,-47.73"/>
<ellipse fill="none" stroke="#a8cd53" cx="365" cy="-70.8435" rx="4" ry="4"/>
<polygon fill="#a8cd53" stroke="#a8cd53" points="365,-47.5231 369.5,-37.5231 365,-42.5231 365,-37.5231 365,-37.5231 365,-37.5231 365,-42.5231 360.5,-37.5232 365,-47.5231 365,-47.5231"/>
</g>
</g>
</svg>
